<?xml version="1.0" encoding="UTF-8"?>
<svg version="1.1" xmlns="http://www.w3.org/2000/svg" width="512" height="512">
<path d="M0 0 C79.2 0 158.4 0 240 0 C240.0825 19.8825 240.165 39.765 240.25 60.25 C240.28641602 66.51000977 240.32283203 72.77001953 240.36035156 79.21972656 C240.37841797 86.90966797 240.37841797 86.90966797 240.3817749 90.51849365 C240.38788611 93.01966199 240.4018895 95.52081911 240.42230225 98.02191162 C240.45178929 101.82763905 240.45561712 105.63265119 240.45410156 109.43847656 C240.468494 110.53823948 240.48288643 111.6380024 240.497715 112.77109146 C240.42333574 126.82228015 235.13748747 137.56451823 225.6875 147.75 C212.90671701 159.84609819 198.94006243 160.43971714 182.32177734 160.34057617 C180.33017998 160.339729 178.33858168 160.3402068 176.34698486 160.34190369 C170.96336827 160.34276154 165.57995375 160.32516979 160.19638395 160.30418181 C154.56164809 160.28537995 148.92690717 160.28366181 143.29214478 160.28010559 C132.63222716 160.27079543 121.97240225 160.24619556 111.31252539 160.21605712 C96.90056014 160.17619825 82.48856939 160.16004992 68.07656288 160.14255047 C45.38430586 160.11437376 22.69224446 160.05459727 0 160 C0 107.2 0 54.4 0 0 Z " fill="#4B2D87" transform="translate(224,304)"/>
<path d="M0 0 C1.99159736 0.00084717 3.98319566 0.00036937 5.97479248 -0.00132751 C11.35840907 -0.00218537 16.7418236 0.01540638 22.12539339 0.03639436 C27.76012926 0.05519622 33.39487017 0.05691436 39.02963257 0.06047058 C49.68955019 0.06978074 60.34937509 0.09438061 71.00925195 0.12451905 C85.42121721 0.16437792 99.83320796 0.18052625 114.24521446 0.1980257 C136.93747149 0.22620241 159.62953289 0.2859789 182.32177734 0.34057617 C182.32177734 47.86057617 182.32177734 95.38057617 182.32177734 144.34057617 C103.12177734 144.34057617 23.92177734 144.34057617 -57.67822266 144.34057617 C-57.67822266 28.01702075 -57.67822266 28.01702075 -43.36572266 12.59057617 C-30.58493966 0.49447798 -16.61828509 -0.09914096 0 0 Z " fill="#4A2C87" transform="translate(105.67822265625,47.659423828125)"/>
<path d="M0 0 C36.96 0 73.92 0 112 0 C112 68.64 112 137.28 112 208 C27.67644458 208 27.67644458 208 12.25 193.6875 C1.05744888 181.86140825 -0.45112248 168.7955256 -0.34057617 153.25927734 C-0.33972865 151.58294693 -0.34020747 149.90661541 -0.34190369 148.23028564 C-0.3427602 143.70612969 -0.32519048 139.18221506 -0.30418181 134.65811491 C-0.28535736 129.92025208 -0.28366004 125.18238299 -0.28010559 120.44448853 C-0.27080202 111.4845288 -0.24621119 102.52467961 -0.21605712 93.56476843 C-0.17617158 81.44883307 -0.16004459 69.33286722 -0.14255047 57.21688271 C-0.11438881 38.14450576 -0.05460804 19.07236203 0 0 Z " fill="#FAA628" transform="translate(48,256)"/>
<path d="M0 0 C84.32355542 0 84.32355542 0 99.75 14.3125 C110.52325796 25.69556501 112.45982988 38.12680506 112.34057617 53.27197266 C112.33972843 54.79066959 112.34020791 56.30936774 112.34190369 57.82806396 C112.34275932 61.92249219 112.32520411 66.01665313 112.30418181 70.11101961 C112.28534249 74.40044558 112.28365888 78.68987864 112.28010559 82.9793396 C112.27080634 91.08932174 112.24622146 99.19918159 112.21605712 107.30911005 C112.17615404 118.27702978 112.16004109 129.24498329 112.14255047 140.21295738 C112.11439868 157.4753964 112.05461512 174.73757743 112 192 C75.04 192 38.08 192 0 192 C0 128.64 0 65.28 0 0 Z " fill="#FAA629" transform="translate(352,48)"/>
</svg>
