<?xml version="1.0" encoding="UTF-8"?>
<svg version="1.1" xmlns="http://www.w3.org/2000/svg" width="512" height="512">
<path d="M0 0 C2.85164321 0.01608757 5.70186582 0.00003456 8.5534668 -0.01904297 C18.05762684 -0.03311852 27.45423557 0.37552023 36.89135742 1.53955078 C37.74716904 1.63064117 38.60298065 1.72173157 39.48472595 1.81558228 C45.55677438 2.67446514 49.38864822 4.72553644 53.41870117 9.39111328 C56.01172878 13.66185039 55.76291251 18.3215877 55.83276367 23.19189453 C55.8618129 24.44645699 55.8618129 24.44645699 55.89144897 25.72636414 C55.95100309 28.38534498 55.99753291 31.04436968 56.04370117 33.70361328 C56.08190323 35.51157438 56.12095626 37.3195177 56.16088867 39.12744141 C56.25668462 43.54852026 56.34080448 47.96968429 56.41870117 52.39111328 C57.53567383 52.70854492 58.65264648 53.02597656 59.8034668 53.35302734 C67.66063458 55.60878635 75.41362871 57.86626723 82.91870117 61.14111328 C83.6935083 61.46966309 84.46831543 61.79821289 85.26660156 62.13671875 C91.72795724 64.93893429 97.92191451 68.19769436 103.98901367 71.77294922 C106.17188854 73.05549334 106.17188854 73.05549334 109.41870117 74.39111328 C113.35991786 73.17018461 115.77176841 70.18980243 118.55932617 67.27001953 C119.55757726 66.24159083 120.55629004 65.21361012 121.55541992 64.18603516 C123.11194353 62.57393891 124.66423472 60.95831135 126.20825195 59.33422852 C138.33432252 46.61678418 138.33432252 46.61678418 146.45922852 46.31542969 C151.47500657 46.647935 154.53093379 48.35865472 158.41870117 51.39111328 C159.15862305 51.96087891 159.89854492 52.53064453 160.66088867 53.11767578 C165.98476751 57.28058416 171.05224656 61.67660312 176.03979492 66.23486328 C178.19380626 68.18726764 180.38897843 70.07388688 182.60620117 71.95361328 C185.87568038 74.80543446 188.70907894 77.85883779 191.50854492 81.16845703 C193.72379078 83.7461153 196.03935457 86.21698251 198.35620117 88.70361328 C213.05882015 104.86527079 213.05882015 104.86527079 213.53588867 113.51611328 C213.4559668 114.13486328 213.37604492 114.75361328 213.29370117 115.39111328 C213.22924805 116.00986328 213.16479492 116.62861328 213.09838867 117.26611328 C211.31778933 122.83304454 207.0863652 127.0062618 202.99682617 131.00830078 C202.23955231 131.7613298 202.23955231 131.7613298 201.46697998 132.52957153 C199.87223531 134.11322743 198.27064073 135.68973915 196.66870117 137.26611328 C195.57839455 138.34637547 194.48854627 139.42710048 193.39916992 140.50830078 C190.74428783 143.1412728 188.08322015 145.7678899 185.41870117 148.39111328 C186.77327011 151.90030205 188.29911782 155.25212997 189.99291992 158.60986328 C197.20057095 173.10766465 203.57645431 187.61337617 207.41870117 203.39111328 C208.53841309 203.4056958 209.658125 203.42027832 210.81176758 203.43530273 C214.98298392 203.49346214 219.15367037 203.57069351 223.32446289 203.65356445 C225.12645846 203.68673101 226.92855584 203.71478853 228.73071289 203.73754883 C231.3276694 203.7712476 233.92369983 203.82356977 236.52026367 203.87939453 C237.32049957 203.88578445 238.12073547 203.89217438 238.94522095 203.89875793 C245.40055205 204.06681252 249.38822035 205.459304 254.18188477 210.02001953 C257.07913697 213.79550358 257.64197376 217.69322606 258.20776367 222.32861328 C258.32487701 223.19832764 258.44199036 224.06804199 258.56265259 224.96411133 C259.72711592 234.44323666 259.87180032 243.91512388 259.80981445 253.45458984 C259.7937093 256.38963249 259.80978627 259.32329888 259.82885742 262.25830078 C259.8424657 271.69574259 259.48904321 281.02631696 258.27026367 290.39111328 C258.13362808 291.60093872 258.13362808 291.60093872 257.99423218 292.83520508 C257.10883562 298.7269324 254.91073182 302.45787161 250.41870117 306.39111328 C246.14796407 308.98414089 241.48822676 308.73532462 236.61791992 308.80517578 C235.36335747 308.83422501 235.36335747 308.83422501 234.08345032 308.86386108 C231.42446948 308.9234152 228.76544477 308.96994502 226.10620117 309.01611328 C224.29824008 309.05431534 222.49029675 309.09336837 220.68237305 309.13330078 C216.26129419 309.22909673 211.84013016 309.31321659 207.41870117 309.39111328 C207.10126953 310.50808594 206.78383789 311.62505859 206.45678711 312.77587891 C204.20102811 320.63304669 201.94354722 328.38604082 198.66870117 335.89111328 C198.34015137 336.66592041 198.01160156 337.44072754 197.6730957 338.23901367 C194.87088016 344.70036934 191.6121201 350.89432662 188.03686523 356.96142578 C186.75432112 359.14430065 186.75432112 359.14430065 185.41870117 362.39111328 C186.63962984 366.33232997 189.62001203 368.74418052 192.53979492 371.53173828 C193.56822362 372.52998937 194.59620433 373.52870215 195.6237793 374.52783203 C197.23587555 376.08435564 198.85150311 377.63664682 200.47558594 379.18066406 C213.19303027 391.30673463 213.19303027 391.30673463 213.49438477 399.43164062 C213.16187945 404.44741868 211.45115973 407.5033459 208.41870117 411.39111328 C207.56405273 412.50099609 207.56405273 412.50099609 206.69213867 413.63330078 C202.50966301 418.98220392 198.08855946 424.06799908 193.50854492 429.07861328 C191.73513276 431.04096842 190.03719872 433.03772737 188.35620117 435.07861328 C185.70848131 438.1893224 182.78444516 440.81025453 179.67260742 443.44970703 C177.10869576 445.658137 174.64543081 447.96043835 172.16870117 450.26611328 C154.82975304 466.03756263 154.82975304 466.03756263 146.29370117 466.50830078 C145.67495117 466.42837891 145.05620117 466.34845703 144.41870117 466.26611328 C143.79995117 466.20166016 143.18120117 466.13720703 142.54370117 466.07080078 C136.97676991 464.29020144 132.80355265 460.05877731 128.80151367 455.96923828 C128.04848465 455.21196442 128.04848465 455.21196442 127.28024292 454.43939209 C125.69658702 452.84464742 124.1200753 451.24305284 122.54370117 449.64111328 C121.46343898 448.55080666 120.38271398 447.46095838 119.30151367 446.37158203 C116.66854166 443.71669994 114.04192455 441.05563226 111.41870117 438.39111328 C107.9095124 439.74568222 104.55768448 441.27152992 101.19995117 442.96533203 C86.7021498 450.17298306 72.19643828 456.54886642 56.41870117 460.39111328 C56.40411865 461.5108252 56.38953613 462.63053711 56.37451172 463.78417969 C56.31635231 467.95539602 56.23912095 472.12608247 56.15625 476.296875 C56.12308344 478.09887057 56.09502592 479.90096795 56.07226562 481.703125 C56.03856685 484.30008151 55.98624468 486.89611194 55.93041992 489.49267578 C55.92403 490.29291168 55.91764008 491.09314758 55.91105652 491.91763306 C55.78426958 496.78778681 55.06779714 500.15560053 52.41870117 504.39111328 C47.22935236 509.30733847 41.92615813 510.7120051 34.96557617 511.49658203 C34.22958191 511.58046677 33.49358765 511.6643515 32.73529053 511.7507782 C24.00035362 512.65543487 15.2653783 512.72730938 6.4909668 512.70678711 C3.68523036 512.70363187 0.88055817 512.72718113 -1.92504883 512.75244141 C-11.35576343 512.78860244 -20.66987205 512.40338993 -30.03442383 511.24658203 C-30.89138855 511.1552449 -31.74835327 511.06390778 -32.63128662 510.96980286 C-38.70975536 510.10940053 -42.54744286 508.06305176 -46.58129883 503.39111328 C-49.17432644 499.12037618 -48.92551017 494.46063886 -48.99536133 489.59033203 C-49.01472748 488.75395706 -49.03409363 487.91758209 -49.05404663 487.05586243 C-49.11360074 484.39688159 -49.16013057 481.73785688 -49.20629883 479.07861328 C-49.24450089 477.27065219 -49.28355391 475.46270886 -49.32348633 473.65478516 C-49.41928228 469.2337063 -49.50340213 464.81254227 -49.58129883 460.39111328 C-50.41648293 460.1361055 -50.41648293 460.1361055 -51.26853943 459.87594604 C-67.05700103 455.04702006 -81.88688423 449.74859485 -96.23754883 441.46630859 C-97.38803711 440.82580566 -97.38803711 440.82580566 -98.56176758 440.17236328 C-99.24134521 439.78113281 -99.92092285 439.38990234 -100.62109375 438.98681641 C-102.57460163 438.19711215 -102.57460163 438.19711215 -104.51123047 438.9597168 C-107.26374005 440.86300299 -109.41052396 443.09116812 -111.72192383 445.51220703 C-112.72017491 446.54063573 -113.7188877 447.56861644 -114.71801758 448.59619141 C-116.27454119 450.20828766 -117.82683237 451.82391521 -119.37084961 453.44799805 C-131.49692018 466.16544238 -131.49692018 466.16544238 -139.62182617 466.46679688 C-147.62871367 465.93600532 -153.43462225 460.05319898 -159.39379883 455.20361328 C-160.45111206 454.34413086 -160.45111206 454.34413086 -161.52978516 453.46728516 C-166.87760421 449.07137913 -171.81993294 444.41754489 -176.58129883 439.39111328 C-178.95397041 436.99203676 -181.33731015 434.61963789 -183.80004883 432.31298828 C-189.25258262 427.12187734 -193.97999187 421.59107918 -198.58129883 415.64111328 C-199.14526367 414.92020508 -199.70922852 414.19929688 -200.2902832 413.45654297 C-204.0037101 408.56486065 -207.28692233 403.82174688 -206.45629883 397.39111328 C-206.3918457 396.77236328 -206.32739258 396.15361328 -206.26098633 395.51611328 C-204.48038699 389.94918202 -200.24896286 385.77596476 -196.15942383 381.77392578 C-195.65457458 381.27190643 -195.14972534 380.76988708 -194.62957764 380.25265503 C-193.03483297 378.66899913 -191.43323839 377.09248741 -189.83129883 375.51611328 C-188.74099221 374.43585109 -187.65114393 373.35512609 -186.56176758 372.27392578 C-183.90688549 369.64095377 -181.2458178 367.01433666 -178.58129883 364.39111328 C-179.93586776 360.88192451 -181.46171547 357.53009659 -183.15551758 354.17236328 C-190.36316861 339.67456191 -196.73905197 325.16885039 -200.58129883 309.39111328 C-201.70101074 309.37653076 -202.82072266 309.36194824 -203.97436523 309.34692383 C-208.14558157 309.28876442 -212.31626802 309.21153306 -216.48706055 309.12866211 C-218.28905612 309.09549555 -220.0911535 309.06743803 -221.89331055 309.04467773 C-224.49026706 309.01097896 -227.08629749 308.95865679 -229.68286133 308.90283203 C-230.48309723 308.89644211 -231.28333313 308.89005219 -232.1078186 308.88346863 C-236.97797236 308.75668169 -240.34578607 308.04020925 -244.58129883 305.39111328 C-255.19740441 294.18522406 -252.92877727 274.00979138 -252.89697266 259.62939453 C-252.89381779 256.65896665 -252.91735089 253.68954371 -252.94262695 250.71923828 C-252.97719617 241.20965041 -252.66837915 231.81254772 -251.43676758 222.37548828 C-251.34543045 221.56992493 -251.25409332 220.76436157 -251.1599884 219.93438721 C-250.27176523 214.05003055 -248.06663551 210.32040855 -243.58129883 206.39111328 C-239.31056172 203.79808567 -234.65082441 204.04690194 -229.78051758 203.97705078 C-228.52595512 203.94800156 -228.52595512 203.94800156 -227.24604797 203.91836548 C-224.58706713 203.85881137 -221.92804243 203.81228154 -219.26879883 203.76611328 C-217.46083773 203.72791122 -215.65289441 203.6888582 -213.8449707 203.64892578 C-209.42389184 203.55312983 -205.00272782 203.46900997 -200.58129883 203.39111328 C-200.26386719 202.27414063 -199.94643555 201.15716797 -199.61938477 200.00634766 C-197.36362576 192.14917987 -195.10614487 184.39618574 -191.83129883 176.89111328 C-191.50274902 176.11630615 -191.17419922 175.34149902 -190.83569336 174.54321289 C-188.03347782 168.08185722 -184.77471775 161.88789994 -181.19946289 155.82080078 C-179.91691877 153.63792591 -179.91691877 153.63792591 -178.58129883 150.39111328 C-179.8022275 146.4498966 -182.78260968 144.03804604 -185.70239258 141.25048828 C-186.73082128 140.2522372 -187.75880199 139.25352441 -188.78637695 138.25439453 C-190.3984732 136.69787092 -192.01410076 135.14557974 -193.63818359 133.6015625 C-206.35562793 121.47549193 -206.35562793 121.47549193 -206.65698242 113.35058594 C-206.32447711 108.33480788 -204.61375739 105.27888066 -201.58129883 101.39111328 C-201.0115332 100.65119141 -200.44176758 99.91126953 -199.85473633 99.14892578 C-195.69182795 93.82504694 -191.29580899 88.75756789 -186.73754883 83.77001953 C-184.78514447 81.6160082 -182.89852523 79.42083602 -181.01879883 77.20361328 C-178.16697764 73.93413408 -175.11357431 71.10073551 -171.80395508 68.30126953 C-169.22629681 66.08602368 -166.7554296 63.77045988 -164.26879883 61.45361328 C-148.10714132 46.7509943 -148.10714132 46.7509943 -139.45629883 46.27392578 C-138.83754883 46.35384766 -138.21879883 46.43376953 -137.58129883 46.51611328 C-136.96254883 46.58056641 -136.34379883 46.64501953 -135.70629883 46.71142578 C-130.13936756 48.49202512 -125.96615031 52.72344925 -121.96411133 56.81298828 C-121.46209198 57.31783752 -120.96007263 57.82268677 -120.44284058 58.34283447 C-118.85918468 59.93757914 -117.28267295 61.53917372 -115.70629883 63.14111328 C-114.62603664 64.2314199 -113.54531163 65.32126818 -112.46411133 66.41064453 C-109.83113931 69.06552662 -107.20452221 71.72659431 -104.58129883 74.39111328 C-101.07211005 73.03654434 -97.72028214 71.51069664 -94.36254883 69.81689453 C-79.86474746 62.6092435 -65.35903594 56.23336014 -49.58129883 52.39111328 C-49.56671631 51.27140137 -49.55213379 50.15168945 -49.53710938 48.99804688 C-49.47894997 44.82683054 -49.4017186 40.65614409 -49.31884766 36.48535156 C-49.2856811 34.68335599 -49.25762358 32.88125861 -49.23486328 31.07910156 C-49.20116451 28.48214505 -49.14884234 25.88611462 -49.09301758 23.28955078 C-49.08662766 22.48931488 -49.08023773 21.68907898 -49.07365417 20.86459351 C-48.90561707 14.40993376 -47.51261398 10.42277282 -42.95458984 5.62792969 C-39.17072338 2.72374337 -35.25387002 2.16755673 -30.60864258 1.60205078 C-29.73779526 1.48493744 -28.86694794 1.3678241 -27.9697113 1.24716187 C-18.66175885 0.10249926 -9.36772005 -0.06253164 0 0 Z M-53.58129883 192.39111328 C-54.4140332 193.12974609 -55.24676758 193.86837891 -56.10473633 194.62939453 C-72.46422982 210.00731841 -81.41468424 231.35044602 -82.57739258 253.66455078 C-82.60076195 275.95893627 -75.55993534 296.63904986 -60.58129883 313.39111328 C-59.47334961 314.64021484 -59.47334961 314.64021484 -58.34301758 315.91455078 C-42.69069026 332.56596282 -21.13744272 341.29311404 1.53588867 342.38720703 C23.46237599 342.40926587 43.99212325 335.07872123 60.41870117 320.39111328 C61.25143555 319.65248047 62.08416992 318.91384766 62.94213867 318.15283203 C79.30163216 302.77490815 88.25208658 281.43178055 89.41479492 259.11767578 C89.4381643 236.82329029 82.39733769 216.14317671 67.41870117 199.39111328 C66.68006836 198.55837891 65.94143555 197.72564453 65.18041992 196.86767578 C49.5280926 180.21626374 27.97484506 171.48911252 5.30151367 170.39501953 C-16.62497364 170.37296069 -37.15472091 177.70350534 -53.58129883 192.39111328 Z " fill="#8A9AA8" transform="translate(252.581298828125,-0.39111328125)"/>
<path d="M0 0 C20.12550527 -0.8759789 41.15499194 1.64410857 59.96679688 9.09423828 C60.73121094 9.39426758 61.495625 9.69429687 62.28320312 10.00341797 C100.15126122 25.20165206 128.83002897 54.08490131 145.27929688 91.28173828 C156.77391211 119.38321474 158.71939932 149.41745526 152.96679688 179.09423828 C152.65935547 180.70105469 152.65935547 180.70105469 152.34570312 182.34033203 C144.13473274 219.11119942 120.5389386 251.96477862 89.13476562 272.49267578 C77.04306233 280.15198655 64.63594577 285.88049004 50.96679688 290.09423828 C49.72285156 290.48482422 48.47890625 290.87541016 47.19726562 291.27783203 C9.76964921 302.15934351 -30.37962832 295.91972242 -64.390625 277.83227539 C-98.52396868 259.00193732 -123.43613134 226.66535295 -134.38818359 189.42041016 C-144.98975173 151.18735143 -141.01810166 110.73270936 -121.796875 75.85058594 C-116.67939955 66.93504675 -110.81512375 58.82948938 -104.03320312 51.09423828 C-103.00839844 49.87027344 -103.00839844 49.87027344 -101.96289062 48.62158203 C-78.9134982 21.78732628 -43.29198395 3.9515041 -8.15820312 0.34423828 C-5.43912987 0.19936962 -2.71974326 0.12605919 0 0 Z M-49.03320312 84.09423828 C-49.8659375 84.83287109 -50.69867188 85.57150391 -51.55664062 86.33251953 C-67.91613412 101.71044341 -76.86658853 123.05357102 -78.02929688 145.36767578 C-78.05266625 167.66206127 -71.01183964 188.34217486 -56.03320312 205.09423828 C-54.92525391 206.34333984 -54.92525391 206.34333984 -53.79492188 207.61767578 C-38.14259456 224.26908782 -16.58934702 232.99623904 6.08398438 234.09033203 C28.01047169 234.11239087 48.54021895 226.78184623 64.96679688 212.09423828 C65.79953125 211.35560547 66.63226563 210.61697266 67.49023438 209.85595703 C83.84972787 194.47803315 92.80018228 173.13490555 93.96289062 150.82080078 C93.98626 128.52641529 86.94543339 107.84630171 71.96679688 91.09423828 C71.22816406 90.26150391 70.48953125 89.42876953 69.72851562 88.57080078 C54.07618831 71.91938874 32.52294077 63.19223752 9.84960938 62.09814453 C-12.07687794 62.07608569 -32.6066252 69.40663034 -49.03320312 84.09423828 Z " fill="#6C7A88" transform="translate(248.033203125,107.90576171875)"/>
<path d="M0 0 C3.60404899 1.42699114 4.83150212 2.90303736 6.55078125 6.33984375 C6.99873047 7.22889404 7.44667969 8.11794434 7.90820312 9.03393555 C8.37162109 9.99211182 8.83503906 10.95028809 9.3125 11.9375 C9.79525391 12.92081299 10.27800781 13.90412598 10.77539062 14.91723633 C16.86729454 27.55956363 21.43779915 40.4412151 25 54 C26.11971191 54.01458252 27.23942383 54.02916504 28.39306641 54.04418945 C32.56428274 54.10234886 36.73496919 54.17958023 40.90576172 54.26245117 C42.70775729 54.29561773 44.50985467 54.32367525 46.31201172 54.34643555 C48.90896823 54.38013432 51.50499866 54.43245649 54.1015625 54.48828125 C54.9017984 54.49467117 55.7020343 54.5010611 56.52651978 54.50764465 C62.98185087 54.67569924 66.96951918 56.06819072 71.76318359 60.62890625 C74.6604358 64.4043903 75.22327259 68.30211278 75.7890625 72.9375 C75.90617584 73.80721436 76.02328918 74.67692871 76.14395142 75.57299805 C77.30841475 85.05212338 77.45309915 94.5240106 77.39111328 104.06347656 C77.37500813 106.99851921 77.39108509 109.9321856 77.41015625 112.8671875 C77.42376453 122.30462931 77.07034204 131.63520368 75.8515625 141 C75.76047211 141.80655029 75.66938171 142.61310059 75.57553101 143.4440918 C74.69013445 149.33581912 72.49203065 153.06675833 68 157 C63.7292629 159.59302761 59.06952558 159.34421134 54.19921875 159.4140625 C52.9446563 159.44311172 52.9446563 159.44311172 51.66474915 159.4727478 C49.0057683 159.53230192 46.3467436 159.57883174 43.6875 159.625 C41.87953891 159.66320206 40.07159558 159.70225509 38.26367188 159.7421875 C33.84259302 159.83798345 29.42142899 159.92210331 25 160 C24.68256836 161.11697266 24.36513672 162.23394531 24.03808594 163.38476562 C21.78232694 171.24193341 19.52484605 178.99492754 16.25 186.5 C15.9214502 187.27480713 15.59290039 188.04961426 15.25439453 188.84790039 C12.45217899 195.30925606 9.19341893 201.50321334 5.61816406 207.5703125 C4.33561995 209.75318737 4.33561995 209.75318737 3 213 C4.22092867 216.94121669 7.20131085 219.35306724 10.12109375 222.140625 C11.14952245 223.13887609 12.17750316 224.13758887 13.20507812 225.13671875 C14.81717438 226.69324236 16.43280193 228.24553354 18.05688477 229.78955078 C30.7743291 241.91562135 30.7743291 241.91562135 31.07568359 250.04052734 C30.74317828 255.0563054 29.03245856 258.11223262 26 262 C25.14535156 263.10988281 25.14535156 263.10988281 24.2734375 264.2421875 C20.09096184 269.59109063 15.66985829 274.6768858 11.08984375 279.6875 C9.31643159 281.64985514 7.61849755 283.64661409 5.9375 285.6875 C3.28978014 288.79820912 0.36574398 291.41914125 -2.74609375 294.05859375 C-5.31000541 296.26702372 -7.77327036 298.56932507 -10.25 300.875 C-27.58894813 316.64644935 -27.58894813 316.64644935 -36.125 317.1171875 C-36.74375 317.03726562 -37.3625 316.95734375 -38 316.875 C-38.61875 316.81054688 -39.2375 316.74609375 -39.875 316.6796875 C-45.44193126 314.89908816 -49.61514852 310.66766403 -53.6171875 306.578125 C-54.37021652 305.82085114 -54.37021652 305.82085114 -55.13845825 305.04827881 C-56.72211415 303.45353414 -58.29862587 301.85193956 -59.875 300.25 C-60.95526219 299.15969338 -62.0359872 298.0698451 -63.1171875 296.98046875 C-65.75015952 294.32558666 -68.37677662 291.66451897 -71 289 C-74.50918877 290.35456894 -77.86101669 291.88041664 -81.21875 293.57421875 C-95.71655137 300.78186978 -110.22226289 307.15775314 -126 311 C-126.01458252 312.11971191 -126.02916504 313.23942383 -126.04418945 314.39306641 C-126.10234886 318.56428274 -126.17958023 322.73496919 -126.26245117 326.90576172 C-126.29561773 328.70775729 -126.32367525 330.50985467 -126.34643555 332.31201172 C-126.38013432 334.90896823 -126.43245649 337.50499866 -126.48828125 340.1015625 C-126.49467117 340.9017984 -126.5010611 341.7020343 -126.50764465 342.52651978 C-126.63443159 347.39667353 -127.35090403 350.76448725 -130 355 C-135.18934881 359.91622519 -140.49254304 361.32089182 -147.453125 362.10546875 C-148.18911926 362.18935349 -148.92511353 362.27323822 -149.68341064 362.35966492 C-158.41834755 363.26432159 -167.15332287 363.3361961 -175.92773438 363.31567383 C-178.73347081 363.31251859 -181.53814301 363.33606785 -184.34375 363.36132812 C-193.7744646 363.39748916 -203.08857322 363.01227665 -212.453125 361.85546875 C-213.31008972 361.76413162 -214.16705444 361.67279449 -215.04998779 361.57868958 C-221.12845653 360.71828724 -224.96614403 358.67193848 -229 354 C-231.59302761 349.7292629 -231.34421134 345.06952558 -231.4140625 340.19921875 C-231.43342865 339.36284378 -231.4527948 338.52646881 -231.4727478 337.66474915 C-231.53230192 335.0057683 -231.57883174 332.3467436 -231.625 329.6875 C-231.66320206 327.87953891 -231.70225509 326.07159558 -231.7421875 324.26367188 C-231.83798345 319.84259302 -231.92210331 315.42142899 -232 311 C-232.8351841 310.74499222 -232.8351841 310.74499222 -233.6872406 310.48483276 C-251.82979829 304.93590276 -268.33923039 298.10144166 -285 289 C-285 287.68 -285 286.36 -285 285 C-273.00749558 274.91588688 -259.83292273 272.97596967 -244.72070312 273.71289062 C-237.91009355 274.43159817 -231.54680248 276.99284314 -225.13525391 279.27783203 C-219.87794308 281.05591635 -214.45695451 282.05396081 -209 283 C-207.30037109 283.30744141 -207.30037109 283.30744141 -205.56640625 283.62109375 C-159.85522627 290.63497851 -112.51982556 278.67281332 -75 252 C-71.54858964 249.4551601 -68.24058922 246.80738546 -65 244 C-64.195625 243.30519531 -63.39125 242.61039063 -62.5625 241.89453125 C-39.64362898 221.66146542 -21.66479735 197.2078682 -11.7265625 168.10986328 C-10.98907 165.96826041 -10.21354926 163.84273625 -9.4375 161.71484375 C3.05636765 126.28192468 2.41291698 85.94249379 -10.09985352 50.65454102 C-13.8013661 39.52518587 -14.21183761 24.73252486 -9 14 C-6.35422324 9.0554336 -3.41264727 4.44862948 0 0 Z " fill="#6B7988" transform="translate(435,149)"/>
<path d="M0 0 C4.08276965 1.56077907 6.46809993 4.4744245 9.1875 7.75 C9.66944824 8.32782227 10.15139648 8.90564453 10.64794922 9.50097656 C15.68061192 15.65698665 19.97989406 22.14835668 24 29 C24.37898437 29.6388916 24.75796875 30.2777832 25.1484375 30.93603516 C43.64938758 62.55993262 47.91257096 99.3391195 41 135 C40.69255859 136.60681641 40.69255859 136.60681641 40.37890625 138.24609375 C32.16793586 175.01696114 8.57214173 207.87054034 -22.83203125 228.3984375 C-34.92373455 236.05774827 -47.33085111 241.78625176 -61 246 C-62.24394531 246.39058594 -63.48789062 246.78117188 -64.76953125 247.18359375 C-102.19347365 258.06403707 -142.35211061 251.82953118 -176.35839844 233.73706055 C-188.05734092 227.28564614 -198.2069694 219.05918593 -208 210 C-205.6628413 204.46833292 -201.12933044 202.43903517 -195.859375 200.015625 C-186.9444739 196.61641811 -178.56977189 197.15959124 -169.7890625 200.671875 C-166.87935095 202.05745193 -164.18633573 203.63139385 -161.4375 205.3125 C-148.88274117 212.86484522 -135.44095888 216.99001643 -121 219 C-119.73929687 219.18175781 -118.47859375 219.36351562 -117.1796875 219.55078125 C-86.81625922 223.21520658 -57.64859308 214.89907013 -33.3125 196.5625 C-31.86353157 195.38902099 -30.42628482 194.20094718 -29 193 C-28.18917969 192.32324219 -27.37835938 191.64648438 -26.54296875 190.94921875 C-5.04927481 172.36097038 8.99773774 145.26323239 12 117 C12.49134188 109.98615897 12.38684955 103.01591476 12 96 C11.94199219 94.93338135 11.94199219 94.93338135 11.8828125 93.84521484 C10.70625853 75.94169695 4.46398489 59.62179927 -4 44 C-4.98817131 42.10884457 -5.96871952 40.21366169 -6.9375 38.3125 C-7.31777344 37.58675781 -7.69804687 36.86101562 -8.08984375 36.11328125 C-11.25164253 28.7719373 -10.82570683 20.66399534 -8.25 13.25 C-6.20792687 8.13033438 -3.92548777 3.92548777 0 0 Z " fill="#596775" transform="translate(360,152)"/>
</svg>
