<?xml version="1.0" encoding="UTF-8"?>
<svg version="1.1" xmlns="http://www.w3.org/2000/svg" width="512" height="512">
<path d="M0 0 C6.96576736 4.96729679 11.73009888 11.40682201 14.54296875 19.4921875 C14.54296875 20.4821875 14.54296875 21.4721875 14.54296875 22.4921875 C15.24073394 22.48942212 15.93849913 22.48665674 16.65740871 22.48380756 C33.6597181 22.41746566 50.66199448 22.36786705 67.66440487 22.33675098 C75.88675023 22.32130234 84.10900903 22.30025126 92.33129883 22.26586914 C99.50041898 22.2359053 106.66947641 22.21659795 113.83865744 22.20992202 C117.63236957 22.20602155 121.42590234 22.19689703 125.21955681 22.17499733 C128.79577147 22.15452157 132.37173414 22.14837588 135.94800186 22.15286446 C137.87503028 22.15165528 139.80203173 22.13557146 141.72898865 22.118927 C150.11270802 22.14860177 156.78463325 23.01026783 163.85546875 27.6796875 C170.08941039 34.20357992 171.67175644 41.29541636 171.66322327 50.1869812 C171.66528526 51.85273445 171.66528526 51.85273445 171.66738892 53.55213928 C171.66379364 54.75551437 171.66019836 55.95888947 171.65649414 57.19873047 C171.65664017 58.47732437 171.65678619 59.75591827 171.65693665 61.07325745 C171.65722277 64.56660656 171.65135592 68.05992113 171.64436269 71.55326223 C171.63809838 75.208775 171.63752292 78.86428861 171.63633728 82.51980591 C171.63323303 89.43635212 171.62503187 96.35288246 171.61498779 103.2694217 C171.6037985 111.14607141 171.59830911 119.0227219 171.59329236 126.89937758 C171.58284849 143.09699017 171.56526662 159.29458681 171.54296875 175.4921875 C172.43790039 175.46535889 173.33283203 175.43853027 174.25488281 175.41088867 C176.01396973 175.37958862 176.01396973 175.37958862 177.80859375 175.34765625 C178.97165039 175.32082764 180.13470703 175.29399902 181.33300781 175.26635742 C184.54679569 175.49245674 185.85388351 175.79315165 188.29296875 177.8046875 C192.07337717 182.32017534 191.6761569 186.48198737 191.640625 192.09765625 C191.63850258 193.35646355 191.63850258 193.35646355 191.63633728 194.64070129 C191.6307409 197.32039966 191.6181891 200.0000144 191.60546875 202.6796875 C191.60045328 204.49674358 191.59589046 206.31380098 191.59179688 208.13085938 C191.58162366 212.58469354 191.56204755 217.03834693 191.54296875 221.4921875 C184.94296875 221.4921875 178.34296875 221.4921875 171.54296875 221.4921875 C171.87296875 231.0621875 172.20296875 240.6321875 172.54296875 250.4921875 C175.03859375 251.0284375 177.53421875 251.5646875 180.10546875 252.1171875 C210.08918857 258.96762856 235.03752143 277.18132603 251.76171875 302.828125 C267.2517632 328.38669834 272.21902227 359.92765273 265.38183594 389.09155273 C260.88770549 406.29433885 252.65844137 421.66756743 241.54296875 435.4921875 C240.96804688 436.22179687 240.393125 436.95140625 239.80078125 437.703125 C235.05988644 443.44210293 229.42707081 447.96847672 223.54296875 452.4921875 C222.76179688 453.100625 221.980625 453.7090625 221.17578125 454.3359375 C201.72532634 468.74368188 179.17566502 474.81067033 155.22737122 474.76634216 C153.69740037 474.77080213 152.16743183 474.77611864 150.63746661 474.78221089 C146.459164 474.79630878 142.28093607 474.79805576 138.10261309 474.79761398 C133.58657667 474.79926933 129.07057038 474.8123486 124.55455017 474.82380676 C114.69547509 474.84659371 104.83642162 474.8545695 94.97732377 474.85963321 C88.81937418 474.86289539 82.6614308 474.86942072 76.50348473 474.8766346 C59.44498936 474.89618665 42.38649974 474.9126009 25.32799244 474.91551113 C24.2378751 474.9156987 23.14775776 474.91588627 22.02460657 474.91607952 C19.81486205 474.91644577 17.60511754 474.91680946 15.39537302 474.91717064 C14.29850588 474.91735345 13.20163874 474.91753626 12.0715332 474.91772461 C10.42422051 474.91799543 10.42422051 474.91799543 8.74362876 474.91827173 C-9.07206844 474.92181741 -26.88764508 474.94887063 -44.70330044 474.9862225 C-63.00537462 475.02428681 -81.30738891 475.04366844 -99.60950357 475.04397064 C-109.88136852 475.04455538 -120.15308935 475.05305877 -130.42491722 475.08196831 C-139.16549812 475.1064562 -147.90588224 475.11378208 -156.64648815 475.09872078 C-161.10531144 475.09154317 -165.56374589 475.09244631 -170.02252579 475.11513138 C-174.10538717 475.13570524 -178.18756036 475.13313646 -182.27041415 475.11225653 C-183.74599696 475.10875873 -185.22162927 475.11368411 -186.69714715 475.12796097 C-195.96512826 475.21184666 -202.22373829 474.62303465 -208.96461076 468.01412004 C-213.67686925 462.76939862 -214.70660609 458.27275303 -214.71430016 451.35561657 C-214.71780623 450.64481555 -214.7213123 449.93401452 -214.72492462 449.20167407 C-214.7342478 446.81366752 -214.72931299 444.42590434 -214.72445679 442.03788757 C-214.72819259 440.31098046 -214.73279382 438.58407504 -214.73818743 436.85717231 C-214.75044154 432.1066352 -214.75015413 427.35616839 -214.74779868 422.60561907 C-214.74739112 417.48415895 -214.75842381 412.36272155 -214.76791382 407.24127197 C-214.78453796 397.20547141 -214.790024 387.16969435 -214.79113857 377.13388117 C-214.79208837 368.97760024 -214.79619523 360.82132708 -214.80253983 352.6650486 C-214.82015602 329.54868631 -214.82937809 306.4323426 -214.82787888 283.31597354 C-214.82779897 282.0693512 -214.82771905 280.82272886 -214.82763672 279.53833008 C-214.82755496 278.29018848 -214.8274732 277.04204688 -214.82738896 275.75608281 C-214.82657593 255.52477868 -214.84571689 235.29354897 -214.87391345 215.06226637 C-214.90262631 194.29695626 -214.91645463 173.53168247 -214.9147259 152.766352 C-214.91406145 141.10496714 -214.91957782 129.44366031 -214.941082 117.78229332 C-214.95927274 107.8539909 -214.96365845 97.92580186 -214.95006315 87.99749001 C-214.94352291 82.93119315 -214.94345446 77.86511396 -214.96076965 72.79883766 C-214.97645863 68.16070833 -214.97367951 63.52297003 -214.95620139 58.88485048 C-214.95312228 57.20720883 -214.95679808 55.5295383 -214.96792154 53.8519307 C-215.02694078 44.31925507 -215.03124034 36.90578754 -208.5625 29.25 C-207.92957031 28.71117187 -207.29664063 28.17234375 -206.64453125 27.6171875 C-206.01933594 27.06289063 -205.39414063 26.50859375 -204.75 25.9375 C-197.79031874 21.5506481 -190.02662484 22.2196738 -182.08618164 22.26513672 C-180.73541268 22.26570154 -179.38464311 22.26538289 -178.03387451 22.26425171 C-174.38352461 22.26367996 -170.73330724 22.2754053 -167.08298802 22.28939962 C-163.26199221 22.30193677 -159.44099307 22.30307983 -155.61997986 22.30545044 C-148.39178488 22.31165646 -141.1636507 22.32805535 -133.93548244 22.34814942 C-125.70332085 22.3705358 -117.4711563 22.38150873 -109.23897183 22.39154029 C-92.31162319 22.41242239 -75.38433366 22.44758123 -58.45703125 22.4921875 C-58.24554443 21.07860962 -58.24554443 21.07860962 -58.02978516 19.63647461 C-56.6593874 12.11330638 -50.36167332 5.13732666 -44.45703125 0.4921875 C-30.71103662 -7.70866864 -13.85770412 -8.50409188 0 0 Z " fill="#EBEEF0" transform="translate(229.45703125,21.5078125)"/>
<path d="M0 0 C6.96576736 4.96729679 11.73009888 11.40682201 14.54296875 19.4921875 C14.54296875 20.4821875 14.54296875 21.4721875 14.54296875 22.4921875 C15.24073394 22.48942212 15.93849913 22.48665674 16.65740871 22.48380756 C33.6597181 22.41746566 50.66199448 22.36786705 67.66440487 22.33675098 C75.88675023 22.32130234 84.10900903 22.30025126 92.33129883 22.26586914 C99.50041898 22.2359053 106.66947641 22.21659795 113.83865744 22.20992202 C117.63236957 22.20602155 121.42590234 22.19689703 125.21955681 22.17499733 C128.79577147 22.15452157 132.37173414 22.14837588 135.94800186 22.15286446 C137.87503028 22.15165528 139.80203173 22.13557146 141.72898865 22.118927 C150.11270802 22.14860177 156.78463325 23.01026783 163.85546875 27.6796875 C170.08941039 34.20357992 171.67175644 41.29541636 171.66322327 50.1869812 C171.66528526 51.85273445 171.66528526 51.85273445 171.66738892 53.55213928 C171.66379364 54.75551437 171.66019836 55.95888947 171.65649414 57.19873047 C171.65664017 58.47732437 171.65678619 59.75591827 171.65693665 61.07325745 C171.65722277 64.56660656 171.65135592 68.05992113 171.64436269 71.55326223 C171.63809838 75.208775 171.63752292 78.86428861 171.63633728 82.51980591 C171.63323303 89.43635212 171.62503187 96.35288246 171.61498779 103.2694217 C171.6037985 111.14607141 171.59830911 119.0227219 171.59329236 126.89937758 C171.58284849 143.09699017 171.56526662 159.29458681 171.54296875 175.4921875 C172.43790039 175.46535889 173.33283203 175.43853027 174.25488281 175.41088867 C176.01396973 175.37958862 176.01396973 175.37958862 177.80859375 175.34765625 C178.97165039 175.32082764 180.13470703 175.29399902 181.33300781 175.26635742 C184.54679569 175.49245674 185.85388351 175.79315165 188.29296875 177.8046875 C192.07337717 182.32017534 191.6761569 186.48198737 191.640625 192.09765625 C191.63850258 193.35646355 191.63850258 193.35646355 191.63633728 194.64070129 C191.6307409 197.32039966 191.6181891 200.0000144 191.60546875 202.6796875 C191.60045328 204.49674358 191.59589046 206.31380098 191.59179688 208.13085938 C191.58162366 212.58469354 191.56204755 217.03834693 191.54296875 221.4921875 C184.94296875 221.4921875 178.34296875 221.4921875 171.54296875 221.4921875 C171.54296875 231.0621875 171.54296875 240.6321875 171.54296875 250.4921875 C160.98296875 250.8221875 150.42296875 251.1521875 139.54296875 251.4921875 C139.54296875 241.5921875 139.54296875 231.6921875 139.54296875 221.4921875 C132.94296875 221.4921875 126.34296875 221.4921875 119.54296875 221.4921875 C119.42791943 216.04651965 119.32846781 210.60509648 119.26831055 205.15917969 C119.2432263 203.30844812 119.2091503 201.45781503 119.16577148 199.60742188 C119.1048488 196.94115867 119.07669884 194.27620925 119.0546875 191.609375 C119.02888107 190.78726532 119.00307465 189.96515564 118.97648621 189.11813354 C118.97445977 184.93086669 119.26518201 182.30131235 121.94848633 178.98486328 C125.86278569 175.22415975 127.8244956 175.37730051 133.16796875 175.4296875 C134.35648437 175.43871094 135.545 175.44773438 136.76953125 175.45703125 C138.14238281 175.47443359 138.14238281 175.47443359 139.54296875 175.4921875 C139.50580629 160.43660781 139.44595192 145.38124582 139.35906601 130.32587051 C139.31925278 123.33540714 139.28687201 116.34505672 139.27197266 109.35449219 C139.25757923 102.61108416 139.22249456 95.86807661 139.17465973 89.12480927 C139.15979609 86.549182 139.1519249 83.97350479 139.1510849 81.39783478 C139.14872857 77.7964169 139.12175466 74.19597671 139.08886719 70.59472656 C139.09389755 69.524422 139.09892792 68.45411743 139.10411072 67.35137939 C139.12410502 61.72657118 139.12410502 61.72657118 136.6338501 56.86077881 C132.86846528 54.39613731 130.50198258 54.34439313 125.98193359 54.28686523 C125.30864517 54.27696564 124.63535675 54.26706604 123.94166565 54.25686646 C121.71244849 54.22523635 119.48321001 54.20048816 117.25390625 54.17578125 C115.70976197 54.15521302 114.16562334 54.13421658 112.62149048 54.11280823 C108.55432708 54.05757401 104.48711276 54.00817072 100.41986084 53.95996094 C96.27074646 53.90975575 92.12170616 53.85406457 87.97265625 53.79882812 C79.8294897 53.69123004 71.68626123 53.58978876 63.54296875 53.4921875 C63.56391602 54.06662598 63.58486328 54.64106445 63.60644531 55.23291016 C63.69010639 57.86082124 63.74178335 60.4884514 63.79296875 63.1171875 C63.84324219 64.47263672 63.84324219 64.47263672 63.89453125 65.85546875 C63.98050039 71.74435479 63.46178949 75.00731488 59.54296875 79.4921875 C56.74456126 80.89139125 54.4317499 80.63109698 51.29985046 80.64608765 C50.32865169 80.65266103 50.32865169 80.65266103 49.33783275 80.6593672 C47.15840579 80.67277028 44.97901928 80.6789374 42.79956055 80.68505859 C41.24089372 80.69295833 39.68222873 80.70122721 38.12356567 80.70983887 C32.99645742 80.73607236 27.86934094 80.75136715 22.7421875 80.765625 C20.97844754 80.77098401 19.21470764 80.77636151 17.45096779 80.78175735 C10.11554898 80.80338743 2.78013239 80.82212504 -4.55531025 80.83337975 C-15.07476749 80.84962483 -25.59385569 80.88281449 -36.11317378 80.93978059 C-43.50601248 80.97845348 -50.89875236 80.99800924 -58.29168957 81.00330031 C-62.70908057 81.00695725 -67.12607809 81.01901449 -71.54335976 81.05140305 C-75.69917226 81.08143753 -79.85435227 81.08781234 -84.01025009 81.07601929 C-85.53526731 81.07579817 -87.06031348 81.08413528 -88.58522987 81.10167313 C-90.66857037 81.12432853 -92.7496101 81.11609099 -94.83296204 81.10018921 C-96.58093315 81.10515443 -96.58093315 81.10515443 -98.3642168 81.11021996 C-102.39062931 80.305628 -103.87287527 78.60376521 -106.45703125 75.4921875 C-107.63129389 73.14366222 -107.57211298 71.75444685 -107.5546875 69.140625 C-107.54985352 67.86445313 -107.54985352 67.86445313 -107.54492188 66.5625 C-107.53235352 65.22832031 -107.53235352 65.22832031 -107.51953125 63.8671875 C-107.51501953 62.97 -107.51050781 62.0728125 -107.50585938 61.1484375 C-107.49405716 58.92962102 -107.4775928 56.71093732 -107.45703125 54.4921875 C-116.49785544 54.5070667 -125.53804855 54.54867865 -134.57857037 54.62427807 C-138.77665517 54.65854668 -142.97437613 54.68365777 -147.17260742 54.68774414 C-151.22539877 54.69202749 -155.27736939 54.72049196 -159.32990456 54.76561928 C-160.8747765 54.77859333 -162.41974668 54.78290224 -163.96466637 54.77834129 C-166.13188287 54.773434 -168.29670166 54.79952589 -170.46362305 54.83276367 C-171.69606247 54.83942551 -172.92850189 54.84608734 -174.19828796 54.85295105 C-178.44200675 55.68540071 -179.74695899 57.16783801 -182.45703125 60.4921875 C-183.19770847 63.56604914 -183.19770847 63.56604914 -183.08065033 66.96559143 C-183.09245567 68.28221992 -183.10426101 69.5988484 -183.11642408 70.95537472 C-183.10423214 72.4149965 -183.09157098 73.87461442 -183.07849121 75.33422852 C-183.08281964 76.88591265 -183.08933511 78.43759197 -183.09785128 79.98925877 C-183.11487212 84.25550602 -183.1006414 88.52116793 -183.0813365 92.78738451 C-183.06593232 97.38732222 -183.07930546 101.98718713 -183.08908081 106.58712769 C-183.10362176 115.59930259 -183.09135887 124.61125255 -183.06996757 133.62340617 C-183.0459797 144.11379594 -183.04767058 154.60413391 -183.05027348 165.09454501 C-183.05396536 183.80949606 -183.0331234 202.52434099 -182.99902344 221.23925781 C-182.96593101 239.40790489 -182.95176495 257.57644058 -182.95800781 275.74511719 C-182.96476902 295.51966451 -182.96231925 315.29416514 -182.94264841 335.06870556 C-182.94160893 336.11399754 -182.94056944 337.15928952 -182.93949845 338.23625702 C-182.93740753 340.33579413 -182.93529655 342.43533123 -182.93316528 344.5348683 C-182.92626429 351.85081498 -182.92560127 359.16674728 -182.92704773 366.48269653 C-182.92848617 375.39586743 -182.91881967 384.30894739 -182.89510137 393.2220881 C-182.88322626 397.77152826 -182.87612626 402.32084153 -182.88193893 406.87029648 C-182.8871 411.03268131 -182.8784608 415.19479775 -182.85866433 419.35713661 C-182.85391353 420.8651341 -182.85423857 422.37315763 -182.8600747 423.88115132 C-182.86722906 425.92702702 -182.85421393 427.97294376 -182.8401413 430.01878357 C-182.83857009 431.15637336 -182.83699889 432.29396315 -182.83538008 433.46602535 C-182.41023659 436.86646702 -181.48734613 438.75571707 -179.45703125 441.4921875 C-177.13585696 442.65277464 -175.8215327 442.61412323 -173.23802853 442.6085062 C-171.90275691 442.60931748 -171.90275691 442.60931748 -170.54051012 442.61014515 C-169.55639211 442.6056663 -168.57227411 442.60118745 -167.55833435 442.59657288 C-165.99721211 442.59551305 -165.99721211 442.59551305 -164.40455204 442.59443182 C-160.8939469 442.59103931 -157.38339444 442.58067509 -153.87280273 442.57055664 C-151.36497567 442.56704265 -148.85714778 442.56407488 -146.34931946 442.56161499 C-142.3357396 442.55739944 -138.32216478 442.55282871 -134.30858886 442.5458194 C-124.34991501 442.52848721 -114.39131785 442.52605627 -104.43263245 442.53282166 C-103.7127228 442.53328019 -102.99281316 442.53373873 -102.25108808 442.53421117 C-98.5687687 442.53656103 -94.88644947 442.53907938 -91.20413029 442.54172027 C-83.61126622 442.54715907 -76.01840251 442.55222981 -68.42553711 442.55541992 C-67.28237873 442.55590987 -67.28237873 442.55590987 -66.11612625 442.55640971 C-53.77766915 442.56091641 -41.43936848 442.54014791 -29.10095095 442.51090605 C-16.43219156 442.48155274 -3.76368574 442.48266818 8.90507644 442.51111692 C16.71795791 442.52763806 24.53005414 442.52003117 32.34286039 442.4813047 C38.33645766 442.45406635 44.32920372 442.46887807 50.32281685 442.49921799 C52.77819486 442.50503603 55.23364938 442.49720118 57.68893051 442.47462654 C61.04569487 442.44579278 64.39873632 442.46631817 67.75538635 442.49891663 C68.7238893 442.47882272 69.69239226 442.45872882 70.69024378 442.43802601 C77.51591321 442.57924579 80.80202505 444.67624538 85.57390732 449.50778955 C88.46377031 452.42016095 91.74384493 454.49024491 95.23046875 456.6171875 C95.91181885 457.03750244 96.59316895 457.45781738 97.29516602 457.89086914 C103.78095627 461.79767294 110.45974137 464.80235432 117.54296875 467.4921875 C118.29320312 467.79640625 119.0434375 468.100625 119.81640625 468.4140625 C127.39219073 471.25860993 135.58894105 472.20456648 143.54296875 473.4921875 C143.54296875 473.8221875 143.54296875 474.1521875 143.54296875 474.4921875 C99.98300498 474.60661736 56.42305711 474.6947285 12.86297268 474.74751415 C7.72098544 474.75376772 2.57899851 474.76023933 -2.56298828 474.7668457 C-3.58667066 474.76815726 -4.61035305 474.76946881 -5.66505611 474.7708201 C-22.2431047 474.79258008 -38.82106665 474.8320049 -55.39906383 474.87795148 C-72.4080437 474.92469959 -89.41697818 474.95247942 -106.42601967 474.96262997 C-116.92259844 474.96949254 -127.41893233 474.99117175 -137.91543573 475.03176983 C-145.11207061 475.05818786 -152.30857877 475.06619061 -159.50525862 475.05969439 C-163.65821416 475.05649003 -167.8107416 475.06142182 -171.96362114 475.08821487 C-175.76750302 475.11257699 -179.57066961 475.1137565 -183.37458467 475.09668197 C-185.39876747 475.09357463 -187.42294207 475.1151133 -189.44700241 475.13759404 C-197.73802258 475.0694212 -202.99062045 473.86055637 -208.96832561 468.01406747 C-213.67366197 462.76296564 -214.70660349 458.27509041 -214.71430016 451.35561657 C-214.71780623 450.64481555 -214.7213123 449.93401452 -214.72492462 449.20167407 C-214.7342478 446.81366752 -214.72931299 444.42590434 -214.72445679 442.03788757 C-214.72819259 440.31098046 -214.73279382 438.58407504 -214.73818743 436.85717231 C-214.75044154 432.1066352 -214.75015413 427.35616839 -214.74779868 422.60561907 C-214.74739112 417.48415895 -214.75842381 412.36272155 -214.76791382 407.24127197 C-214.78453796 397.20547141 -214.790024 387.16969435 -214.79113857 377.13388117 C-214.79208837 368.97760024 -214.79619523 360.82132708 -214.80253983 352.6650486 C-214.82015602 329.54868631 -214.82937809 306.4323426 -214.82787888 283.31597354 C-214.82779897 282.0693512 -214.82771905 280.82272886 -214.82763672 279.53833008 C-214.82755496 278.29018848 -214.8274732 277.04204688 -214.82738896 275.75608281 C-214.82657593 255.52477868 -214.84571689 235.29354897 -214.87391345 215.06226637 C-214.90262631 194.29695626 -214.91645463 173.53168247 -214.9147259 152.766352 C-214.91406145 141.10496714 -214.91957782 129.44366031 -214.941082 117.78229332 C-214.95927274 107.8539909 -214.96365845 97.92580186 -214.95006315 87.99749001 C-214.94352291 82.93119315 -214.94345446 77.86511396 -214.96076965 72.79883766 C-214.97645863 68.16070833 -214.97367951 63.52297003 -214.95620139 58.88485048 C-214.95312228 57.20720883 -214.95679808 55.5295383 -214.96792154 53.8519307 C-215.02694078 44.31925507 -215.03124034 36.90578754 -208.5625 29.25 C-207.92957031 28.71117187 -207.29664063 28.17234375 -206.64453125 27.6171875 C-206.01933594 27.06289063 -205.39414063 26.50859375 -204.75 25.9375 C-197.79031874 21.5506481 -190.02662484 22.2196738 -182.08618164 22.26513672 C-180.73541268 22.26570154 -179.38464311 22.26538289 -178.03387451 22.26425171 C-174.38352461 22.26367996 -170.73330724 22.2754053 -167.08298802 22.28939962 C-163.26199221 22.30193677 -159.44099307 22.30307983 -155.61997986 22.30545044 C-148.39178488 22.31165646 -141.1636507 22.32805535 -133.93548244 22.34814942 C-125.70332085 22.3705358 -117.4711563 22.38150873 -109.23897183 22.39154029 C-92.31162319 22.41242239 -75.38433366 22.44758123 -58.45703125 22.4921875 C-58.24554443 21.07860962 -58.24554443 21.07860962 -58.02978516 19.63647461 C-56.6593874 12.11330638 -50.36167332 5.13732666 -44.45703125 0.4921875 C-30.71103662 -7.70866864 -13.85770412 -8.50409188 0 0 Z " fill="#837683" transform="translate(229.45703125,21.5078125)"/>
<path d="M0 0 C19.77263576 17.64288317 34.39558541 43.54164614 36.51635742 70.22802734 C38.38279098 103.31574664 31.59343338 131.01388628 10.51635742 157.22802734 C9.94143555 157.95763672 9.36651367 158.68724609 8.77416992 159.43896484 C4.03327511 165.17794278 -1.59954051 169.70431657 -7.48364258 174.22802734 C-8.65540039 175.14068359 -8.65540039 175.14068359 -9.85083008 176.07177734 C-34.28064436 194.16793607 -64.67468811 199.58928695 -94.47363281 195.50756836 C-115.11123247 191.99569212 -135.09254822 182.36873737 -150.48364258 168.22802734 C-150.96784668 167.78620117 -151.45205078 167.344375 -151.95092773 166.88916016 C-166.94685395 153.05343241 -177.08548713 136.62600367 -183.48364258 117.22802734 C-184.29939255 117.22438171 -185.11514252 117.22073608 -185.95561218 117.21697998 C-193.65086491 117.17908173 -201.34563448 117.12220887 -209.04057598 117.0441246 C-212.99646835 117.00464878 -216.95213809 116.97246108 -220.90820312 116.95703125 C-224.72751161 116.94186494 -228.54620808 116.90742104 -232.36524391 116.85971832 C-233.82079556 116.84490404 -235.27643459 116.83698629 -236.73206139 116.83614349 C-238.77450853 116.83377198 -240.81526675 116.80668336 -242.85742188 116.77392578 C-244.01880173 116.76504333 -245.18018158 116.75616089 -246.37675476 116.74700928 C-250.15154682 116.11645903 -251.81214614 114.92994293 -254.48364258 112.22802734 C-255.60864258 108.79052734 -255.60864258 108.79052734 -255.48364258 105.22802734 C-252.99736096 102.06296473 -251.48765759 100.42972713 -247.49064636 99.62675476 C-246.38256119 99.63785782 -245.27447601 99.64896088 -244.1328125 99.66040039 C-242.87188278 99.66077805 -241.61095306 99.6611557 -240.31181335 99.6615448 C-238.94590252 99.6870741 -237.58000188 99.71315401 -236.21411133 99.73974609 C-234.80879476 99.74907875 -233.40346186 99.75619273 -231.99812317 99.76118469 C-228.31025799 99.78021962 -224.62338707 99.82928764 -220.93591309 99.88470459 C-217.16875907 99.93597427 -213.40143863 99.95898954 -209.6340332 99.98388672 C-202.24969333 100.03475707 -194.8680789 100.13262119 -187.48364258 100.22802734 C-187.48364258 90.65802734 -187.48364258 81.08802734 -187.48364258 71.22802734 C-194.21834961 71.31503906 -194.21834961 71.31503906 -201.08911133 71.40380859 C-204.67434747 71.4359748 -208.25954272 71.46308454 -211.844841 71.48677826 C-215.62683678 71.5131573 -219.40827023 71.54839202 -223.18994141 71.60522461 C-226.83394739 71.65964415 -230.47740889 71.6894682 -234.12178993 71.70241356 C-235.51049685 71.71163591 -236.89917472 71.72964587 -238.28764915 71.75667763 C-240.23574002 71.79308805 -242.18438149 71.79507073 -244.1328125 71.7956543 C-245.24089767 71.80675735 -246.34898285 71.81786041 -247.49064636 71.82929993 C-251.48765759 71.02632756 -252.99736096 69.39308995 -255.48364258 66.22802734 C-255.60864258 62.66552734 -255.60864258 62.66552734 -254.48364258 59.22802734 C-251.80688403 56.51366722 -250.17291083 55.33474201 -246.37675476 54.74700928 C-245.21537491 54.75589172 -244.05399506 54.76477417 -242.85742188 54.77392578 C-242.21295609 54.77334167 -241.5684903 54.77275757 -240.90449524 54.77215576 C-238.78838986 54.7749278 -236.67371853 54.80597373 -234.55786133 54.83740234 C-233.08527903 54.84486797 -231.61268675 54.85055939 -230.14009094 54.85455322 C-226.27485452 54.86978453 -222.41022473 54.90904371 -218.54522705 54.95336914 C-214.59704799 54.99437653 -210.64877036 55.01257584 -206.70043945 55.03271484 C-198.96123139 55.07554129 -191.22252217 55.1437611 -183.48364258 55.22802734 C-183.35094971 53.99665039 -183.21825684 52.76527344 -183.08154297 51.49658203 C-182.69577348 48.42814709 -182.16726411 45.77990176 -180.91723633 42.93115234 C-180.60044922 42.20565186 -180.28366211 41.48015137 -179.95727539 40.73266602 C-179.61535156 39.98863525 -179.27342773 39.24460449 -178.92114258 38.47802734 C-178.56761719 37.69596924 -178.2140918 36.91391113 -177.84985352 36.1081543 C-173.77618823 27.344011 -168.53135172 19.75631224 -162.48364258 12.22802734 C-163.56248215 12.22438171 -164.64132172 12.22073608 -165.75285339 12.21697998 C-175.9203322 12.18003738 -186.08750793 12.12227271 -196.25475597 12.0441246 C-201.48186181 12.00461685 -206.70879834 11.9724445 -211.93603516 11.95703125 C-216.98072148 11.94188646 -222.02494248 11.90747951 -227.06942177 11.85971832 C-228.99388904 11.84488206 -230.91842273 11.83698504 -232.84294701 11.83614349 C-235.53903173 11.83377884 -238.23382523 11.80674017 -240.9296875 11.77392578 C-242.12299431 11.78147133 -242.12299431 11.78147133 -243.34040833 11.78916931 C-247.03139033 11.71967194 -249.27531805 11.35588159 -252.44795227 9.40875244 C-254.48364258 7.22802734 -254.48364258 7.22802734 -255.60864258 3.79052734 C-255.48364258 0.22802734 -255.48364258 0.22802734 -253.61152649 -2.46510315 C-249.16791702 -5.74234344 -245.69480489 -5.39791825 -240.3125 -5.24438477 C-239.29074173 -5.23547714 -238.26898346 -5.22656952 -237.21626282 -5.21739197 C-235.00028529 -5.19503878 -232.78440052 -5.16120412 -230.56874657 -5.11723137 C-227.05848698 -5.04871869 -223.54921066 -5.01241061 -220.03840637 -4.98475647 C-211.31809483 -4.90993829 -202.59867944 -4.78489778 -193.87908936 -4.65142822 C-186.51252134 -4.53945477 -179.1464907 -4.45141264 -171.77926064 -4.39740181 C-168.32640419 -4.36232228 -164.87540954 -4.29182431 -161.42314148 -4.22044373 C-159.29643261 -4.20183507 -157.16970741 -4.18498319 -155.04296875 -4.17016602 C-153.61112747 -4.1260257 -153.61112747 -4.1260257 -152.15036011 -4.08099365 C-145.15845595 -4.08897317 -141.61919942 -6.17336542 -136.48364258 -10.77197266 C-94.68665998 -39.33225035 -37.2884536 -32.25761521 0 0 Z " fill="#FEE077" transform="translate(460.483642578125,299.77197265625)"/>
<path d="M0 0 C6.96576736 4.96729679 11.73009888 11.40682201 14.54296875 19.4921875 C14.54296875 20.4821875 14.54296875 21.4721875 14.54296875 22.4921875 C15.24073394 22.48942212 15.93849913 22.48665674 16.65740871 22.48380756 C33.6597181 22.41746566 50.66199448 22.36786705 67.66440487 22.33675098 C75.88675023 22.32130234 84.10900903 22.30025126 92.33129883 22.26586914 C99.50041898 22.2359053 106.66947641 22.21659795 113.83865744 22.20992202 C117.63236957 22.20602155 121.42590234 22.19689703 125.21955681 22.17499733 C128.79577147 22.15452157 132.37173414 22.14837588 135.94800186 22.15286446 C137.87503028 22.15165528 139.80203173 22.13557146 141.72898865 22.118927 C150.11270802 22.14860177 156.78463325 23.01026783 163.85546875 27.6796875 C170.08941039 34.20357992 171.67175644 41.29541636 171.66322327 50.1869812 C171.66528526 51.85273445 171.66528526 51.85273445 171.66738892 53.55213928 C171.66379364 54.75551437 171.66019836 55.95888947 171.65649414 57.19873047 C171.65664017 58.47732437 171.65678619 59.75591827 171.65693665 61.07325745 C171.65722277 64.56660656 171.65135592 68.05992113 171.64436269 71.55326223 C171.63809838 75.208775 171.63752292 78.86428861 171.63633728 82.51980591 C171.63323303 89.43635212 171.62503187 96.35288246 171.61498779 103.2694217 C171.6037985 111.14607141 171.59830911 119.0227219 171.59329236 126.89937758 C171.58284849 143.09699017 171.56526662 159.29458681 171.54296875 175.4921875 C172.43790039 175.46535889 173.33283203 175.43853027 174.25488281 175.41088867 C176.01396973 175.37958862 176.01396973 175.37958862 177.80859375 175.34765625 C178.97165039 175.32082764 180.13470703 175.29399902 181.33300781 175.26635742 C184.54679569 175.49245674 185.85388351 175.79315165 188.29296875 177.8046875 C192.07337717 182.32017534 191.6761569 186.48198737 191.640625 192.09765625 C191.63850258 193.35646355 191.63850258 193.35646355 191.63633728 194.64070129 C191.6307409 197.32039966 191.6181891 200.0000144 191.60546875 202.6796875 C191.60045328 204.49674358 191.59589046 206.31380098 191.59179688 208.13085938 C191.58162366 212.58469354 191.56204755 217.03834693 191.54296875 221.4921875 C184.94296875 221.4921875 178.34296875 221.4921875 171.54296875 221.4921875 C171.54296875 231.0621875 171.54296875 240.6321875 171.54296875 250.4921875 C160.98296875 250.8221875 150.42296875 251.1521875 139.54296875 251.4921875 C139.54296875 241.5921875 139.54296875 231.6921875 139.54296875 221.4921875 C132.94296875 221.4921875 126.34296875 221.4921875 119.54296875 221.4921875 C119.42791943 216.04651965 119.32846781 210.60509648 119.26831055 205.15917969 C119.2432263 203.30844812 119.2091503 201.45781503 119.16577148 199.60742188 C119.1048488 196.94115867 119.07669884 194.27620925 119.0546875 191.609375 C119.02888107 190.78726532 119.00307465 189.96515564 118.97648621 189.11813354 C118.97445977 184.93086669 119.26518201 182.30131235 121.94848633 178.98486328 C125.86278569 175.22415975 127.8244956 175.37730051 133.16796875 175.4296875 C134.35648437 175.43871094 135.545 175.44773438 136.76953125 175.45703125 C138.14238281 175.47443359 138.14238281 175.47443359 139.54296875 175.4921875 C139.50580629 160.43660781 139.44595192 145.38124582 139.35906601 130.32587051 C139.31925278 123.33540714 139.28687201 116.34505672 139.27197266 109.35449219 C139.25757923 102.61108416 139.22249456 95.86807661 139.17465973 89.12480927 C139.15979609 86.549182 139.1519249 83.97350479 139.1510849 81.39783478 C139.14872857 77.7964169 139.12175466 74.19597671 139.08886719 70.59472656 C139.09389755 69.524422 139.09892792 68.45411743 139.10411072 67.35137939 C139.12410502 61.72657118 139.12410502 61.72657118 136.6338501 56.86077881 C132.86846528 54.39613731 130.50198258 54.34439313 125.98193359 54.28686523 C125.30864517 54.27696564 124.63535675 54.26706604 123.94166565 54.25686646 C121.71244849 54.22523635 119.48321001 54.20048816 117.25390625 54.17578125 C115.70976197 54.15521302 114.16562334 54.13421658 112.62149048 54.11280823 C108.55432708 54.05757401 104.48711276 54.00817072 100.41986084 53.95996094 C96.27074646 53.90975575 92.12170616 53.85406457 87.97265625 53.79882812 C79.8294897 53.69123004 71.68626123 53.58978876 63.54296875 53.4921875 C63.56391602 54.06662598 63.58486328 54.64106445 63.60644531 55.23291016 C63.69010639 57.86082124 63.74178335 60.4884514 63.79296875 63.1171875 C63.84324219 64.47263672 63.84324219 64.47263672 63.89453125 65.85546875 C63.98050039 71.74435479 63.46178949 75.00731488 59.54296875 79.4921875 C56.74456126 80.89139125 54.4317499 80.63109698 51.29985046 80.64608765 C50.32865169 80.65266103 50.32865169 80.65266103 49.33783275 80.6593672 C47.15840579 80.67277028 44.97901928 80.6789374 42.79956055 80.68505859 C41.24089372 80.69295833 39.68222873 80.70122721 38.12356567 80.70983887 C32.99645742 80.73607236 27.86934094 80.75136715 22.7421875 80.765625 C20.97844754 80.77098401 19.21470764 80.77636151 17.45096779 80.78175735 C10.11554898 80.80338743 2.78013239 80.82212504 -4.55531025 80.83337975 C-15.07476749 80.84962483 -25.59385569 80.88281449 -36.11317378 80.93978059 C-43.50601248 80.97845348 -50.89875236 80.99800924 -58.29168957 81.00330031 C-62.70908057 81.00695725 -67.12607809 81.01901449 -71.54335976 81.05140305 C-75.69917226 81.08143753 -79.85435227 81.08781234 -84.01025009 81.07601929 C-85.53526731 81.07579817 -87.06031348 81.08413528 -88.58522987 81.10167313 C-90.66857037 81.12432853 -92.7496101 81.11609099 -94.83296204 81.10018921 C-96.58093315 81.10515443 -96.58093315 81.10515443 -98.3642168 81.11021996 C-102.39062931 80.305628 -103.87287527 78.60376521 -106.45703125 75.4921875 C-109.59107372 69.22410255 -107.45703125 61.50011951 -107.45703125 54.4921875 C-129.89703125 54.4921875 -152.33703125 54.4921875 -175.45703125 54.4921875 C-175.45703125 54.1621875 -175.45703125 53.8321875 -175.45703125 53.4921875 C-153.01703125 53.4921875 -130.57703125 53.4921875 -107.45703125 53.4921875 C-107.45703125 45.9021875 -107.45703125 38.3121875 -107.45703125 30.4921875 C-101.45703125 23.4921875 -101.45703125 23.4921875 -98.45703125 22.4921875 C-97.12174318 22.40674459 -95.78259237 22.37444125 -94.44458008 22.37866211 C-93.64397659 22.37873764 -92.84337311 22.37881317 -92.01850891 22.37889099 C-90.72930794 22.38663292 -90.72930794 22.38663292 -89.4140625 22.39453125 C-88.53046555 22.3959462 -87.64686859 22.39736115 -86.73649597 22.39881897 C-83.91413997 22.40441681 -81.09186328 22.41696889 -78.26953125 22.4296875 C-76.35612094 22.43470278 -74.44270938 22.43926564 -72.52929688 22.44335938 C-67.83851111 22.45438553 -63.14778462 22.47164867 -58.45703125 22.4921875 C-58.24554443 21.07860962 -58.24554443 21.07860962 -58.02978516 19.63647461 C-56.6593874 12.11330638 -50.36167332 5.13732666 -44.45703125 0.4921875 C-30.71103662 -7.70866864 -13.85770412 -8.50409188 0 0 Z " fill="#E2A76F" transform="translate(229.45703125,21.5078125)"/>
<path d="M0 0 C2.9375 2.375 2.9375 2.375 5 5 C5 5.66 5 6.32 5 7 C6.7634375 7.0928125 6.7634375 7.0928125 8.5625 7.1875 C24.79490453 9.04772846 39.94790272 17.29176489 52 28 C52.63550781 28.56460937 53.27101563 29.12921875 53.92578125 29.7109375 C65.33866833 40.49118117 76.07340703 58.4889816 77.16796875 74.44921875 C77.1841209 76.30025564 77.10461221 78.151851 77 80 C76.18015625 80.02578125 75.3603125 80.0515625 74.515625 80.078125 C72.89914062 80.16320312 72.89914062 80.16320312 71.25 80.25 C70.18265625 80.29640625 69.1153125 80.3428125 68.015625 80.390625 C64.42788315 81.1156091 63.20401731 82.12428218 61 85 C60.33333333 88 60.33333333 88 61 91 C63.20401731 93.87571782 64.42788315 94.8843909 68.015625 95.609375 C69.08296875 95.65578125 70.1503125 95.7021875 71.25 95.75 C72.32765625 95.80671875 73.4053125 95.8634375 74.515625 95.921875 C75.33546875 95.94765625 76.1553125 95.9734375 77 96 C77.26448533 115.26964529 66.6726742 132.73081418 53.8125 146.3359375 C40.8889975 158.57736625 25.88924241 165.97483951 8.23046875 168.1015625 C4.83932334 168.68074648 4.83932334 168.68074648 3.23828125 171.4609375 C2.62533203 172.71777344 2.62533203 172.71777344 2 174 C-1 176 -1 176 -4.4375 176 C-8 175 -8 175 -9.76171875 172.03125 C-11.75064816 168.70619289 -11.75064816 168.70619289 -15.3984375 167.96875 C-16.72150209 167.79291023 -18.04742071 167.63766902 -19.375 167.5 C-39.59494253 164.51684326 -57.13935672 152.36511478 -69.39746094 136.26635742 C-77.32677874 125.32383656 -84.6486524 109.75143094 -84 96 C-84.78375 95.71125 -85.5675 95.4225 -86.375 95.125 C-89 94 -89 94 -91 92 C-91.68302257 84.9421001 -91.68302257 84.9421001 -89.1875 81.5 C-87 80 -87 80 -84 80 C-84.04382813 79.00355469 -84.08765625 78.00710938 -84.1328125 76.98046875 C-83.99346275 72.80407466 -83.16440569 69.2462474 -81.875 65.3125 C-81.6490918 64.61479492 -81.42318359 63.91708984 -81.19042969 63.19824219 C-73.67718254 40.76128113 -58.72547753 24.69666208 -38.125 13.6875 C-29.75169623 9.69013823 -20.3377717 6.6287736 -11 7 C-10.896875 6.401875 -10.79375 5.80375 -10.6875 5.1875 C-8.92352147 -0.42515895 -5.53640736 -0.76364239 0 0 Z " fill="#EBEEF0" transform="translate(388,296)"/>
<path d="M0 0 C12.36137269 -0.06962775 24.72269842 -0.12287619 37.08422756 -0.15543652 C42.82469568 -0.17106684 48.56502923 -0.19225713 54.30541992 -0.22631836 C59.84917072 -0.25900552 65.3927924 -0.27687281 70.93663216 -0.28463173 C73.04764907 -0.29015844 75.15865922 -0.30095068 77.2696209 -0.31719017 C80.23515765 -0.33908866 83.20016639 -0.34196172 86.16577148 -0.34057617 C87.46374161 -0.35675491 87.46374161 -0.35675491 88.78793335 -0.3732605 C96.07960733 -0.33659462 102.19215306 1.14576146 108.3125 5.1875 C114.54644164 11.71139242 116.12878769 18.80322886 116.12025452 27.6947937 C116.12231651 29.36054695 116.12231651 29.36054695 116.12442017 31.05995178 C116.11902725 32.86501442 116.11902725 32.86501442 116.11352539 34.70654297 C116.11367142 35.98513687 116.11381744 37.26373077 116.1139679 38.58106995 C116.11425402 42.07441906 116.10838717 45.56773363 116.10139394 49.06107473 C116.09512963 52.7165875 116.09455417 56.37210111 116.09336853 60.02761841 C116.09026428 66.94416462 116.08206312 73.86069496 116.07201904 80.7772342 C116.06082975 88.65388391 116.05534036 96.5305344 116.05032361 104.40719008 C116.03987974 120.60480267 116.02229787 136.80239931 116 153 C116.89493164 152.97317139 117.78986328 152.94634277 118.71191406 152.91870117 C120.47100098 152.88740112 120.47100098 152.88740112 122.265625 152.85546875 C123.42868164 152.82864014 124.59173828 152.80181152 125.79003906 152.77416992 C129.00382694 153.00026924 130.31091476 153.30096415 132.75 155.3125 C136.53040842 159.82798784 136.13318815 163.98979987 136.09765625 169.60546875 C136.09553383 170.86427605 136.09553383 170.86427605 136.09336853 172.14851379 C136.08777215 174.82821216 136.07522035 177.5078269 136.0625 180.1875 C136.05748453 182.00455608 136.05292171 183.82161348 136.04882812 185.63867188 C136.03865491 190.09250604 136.0190788 194.54615943 136 199 C129.4 199 122.8 199 116 199 C116 208.57 116 218.14 116 228 C100.16 228.495 100.16 228.495 84 229 C84 219.1 84 209.2 84 199 C77.4 199 70.8 199 64 199 C63.88495068 193.55433215 63.78549906 188.11290898 63.7253418 182.66699219 C63.70025755 180.81626062 63.66618155 178.96562753 63.62280273 177.11523438 C63.56188005 174.44897117 63.53373009 171.78402175 63.51171875 169.1171875 C63.48591232 168.29507782 63.4601059 167.47296814 63.43351746 166.62594604 C63.43149102 162.43867919 63.72221326 159.80912485 66.40551758 156.49267578 C70.31981694 152.73197225 72.28152685 152.88511301 77.625 152.9375 C78.81351562 152.94652344 80.00203125 152.95554688 81.2265625 152.96484375 C82.14179688 152.97644531 83.05703125 152.98804688 84 153 C83.96283754 137.94442031 83.90298317 122.88905832 83.81609726 107.83368301 C83.77628403 100.84321964 83.74390326 93.85286922 83.72900391 86.86230469 C83.71461048 80.11889666 83.67952581 73.37588911 83.63169098 66.63262177 C83.61682734 64.0569945 83.60895615 61.48131729 83.60811615 58.90564728 C83.60575982 55.3042294 83.57878591 51.70378921 83.54589844 48.10253906 C83.5509288 47.0322345 83.55595917 45.96192993 83.56114197 44.85919189 C83.58113627 39.23438368 83.58113627 39.23438368 81.09088135 34.36859131 C77.32549653 31.90394981 74.95901383 31.85220563 70.43896484 31.79467773 C69.42903221 31.77982834 69.42903221 31.77982834 68.3986969 31.76467896 C66.16947974 31.73304885 63.94024126 31.70830066 61.7109375 31.68359375 C60.16679322 31.66302552 58.62265459 31.64202908 57.07852173 31.62062073 C53.01135833 31.56538651 48.94414401 31.51598322 44.87689209 31.46777344 C40.72777771 31.41756825 36.57873741 31.36187707 32.4296875 31.30664062 C24.28652095 31.19904254 16.14329248 31.09760126 8 31 C7.98541748 30.3294458 7.97083496 29.6588916 7.95581055 28.96801758 C7.881117 25.91561178 7.78452701 22.86427415 7.6875 19.8125 C7.66494141 18.75740234 7.64238281 17.70230469 7.61914062 16.61523438 C7.58369141 15.59365234 7.54824219 14.57207031 7.51171875 13.51953125 C7.48553467 12.58214111 7.45935059 11.64475098 7.43237305 10.67895508 C6.75324398 6.47111588 5.07627179 3.89176806 1.8125 1.1875 C1.214375 0.795625 0.61625 0.40375 0 0 Z " fill="#685E68" transform="translate(285,44)"/>
<path d="M0 0 C0.33 0 0.66 0 1 0 C1 43.23 1 86.46 1 131 C5.29 131 9.58 131 14 131 C17.93215189 133.424827 19.54641781 134.63925343 21 139 C21.0853013 141.87694671 21.11585645 144.72900182 21.09765625 147.60546875 C21.0962413 148.44467361 21.09482635 149.28387848 21.09336853 150.14851379 C21.08777215 152.82821216 21.07522035 155.5078269 21.0625 158.1875 C21.05748453 160.00455608 21.05292171 161.82161348 21.04882812 163.63867188 C21.03865491 168.09250604 21.0190788 172.54615943 21 177 C14.4 177 7.8 177 1 177 C1 186.57 1 196.14 1 206 C-14.84 206.495 -14.84 206.495 -31 207 C-31 197.1 -31 187.2 -31 177 C-37.6 177 -44.2 177 -51 177 C-51.11504932 171.55433215 -51.21450094 166.11290898 -51.2746582 160.66699219 C-51.29974245 158.81626062 -51.33381845 156.96562753 -51.37719727 155.11523438 C-51.43811995 152.44897117 -51.46626991 149.78402175 -51.48828125 147.1171875 C-51.51408768 146.29507782 -51.5398941 145.47296814 -51.56648254 144.62594604 C-51.56850898 140.43867919 -51.27778674 137.80912485 -48.59448242 134.49267578 C-42.59756801 128.73107833 -42.2301434 131 -31 131 C-31 93.71 -31 56.42 -31 18 C-30.67 18 -30.34 18 -30 18 C-30 55.29 -30 92.58 -30 131 C-20.1 131 -10.2 131 0 131 C0 87.77 0 44.54 0 0 Z " fill="#A79BA6" transform="translate(400,66)"/>
<path d="M0 0 C2.4375 1.5625 2.4375 1.5625 4 4 C4.727851 8.367106 4.46837297 10.29744055 2 14 C-0.68717947 16.85185342 -3.64073455 19.40216284 -6.62109375 21.94140625 C-10.02278386 24.88506912 -13.31450555 27.94473984 -16.61157227 31.00463867 C-19.1103539 33.3118819 -21.48715778 35.32420007 -24.328125 37.21484375 C-27.68204095 40.7109579 -27.64534038 42.57262878 -27.6875 47.25585938 C-27.666875 48.14080078 -27.64625 49.02574219 -27.625 49.9375 C-27.46396771 60.94405703 -27.46396771 60.94405703 -32 66 C-37.20955722 70.37741247 -41.27480557 70.59039147 -47.78125 70.53125 C-48.71296021 70.5350769 -49.64467041 70.53890381 -50.60461426 70.54284668 C-52.56796351 70.54555996 -54.53134927 70.53823976 -56.49462891 70.52148438 C-59.49073281 70.50006625 -62.48443896 70.52130573 -65.48046875 70.546875 C-67.39323443 70.54423162 -69.30599863 70.53910643 -71.21875 70.53125 C-72.55492371 70.54339539 -72.55492371 70.54339539 -73.91809082 70.55578613 C-79.41859375 70.47332733 -82.72946872 69.790057 -87 66 C-91.50231917 60.93588744 -91.57720303 56.63768951 -91.49609375 50.18359375 C-91.4982766 48.78247093 -91.4982766 48.78247093 -91.50050354 47.3530426 C-91.49884897 45.38547637 -91.48733743 43.4178966 -91.46655273 41.45043945 C-91.43755895 38.44361306 -91.44596108 35.43854724 -91.45898438 32.43164062 C-91.45274749 30.51561646 -91.44435695 28.59959784 -91.43359375 26.68359375 C-91.43652939 25.78764999 -91.43946503 24.89170624 -91.44248962 23.96861267 C-91.3490281 17.77072985 -90.17719085 14.44933971 -86 9.75 C-83.07364198 7.18943673 -80.56947792 6.87309717 -76.82324219 6.82299805 C-75.98517029 6.81016281 -75.14709839 6.79732758 -74.28363037 6.78410339 C-72.92893646 6.77302299 -72.92893646 6.77302299 -71.546875 6.76171875 C-70.14649994 6.74961113 -70.14649994 6.74961113 -68.71783447 6.73725891 C-66.74078218 6.72342767 -64.76370611 6.71270122 -62.78662109 6.70483398 C-59.77525073 6.68764414 -56.76498499 6.64375213 -53.75390625 6.59960938 C-51.83073722 6.58947994 -49.90755888 6.58096462 -47.984375 6.57421875 C-47.08934265 6.55671066 -46.1943103 6.53920258 -45.27215576 6.52116394 C-39.32781822 6.54160706 -35.88253225 7.56230281 -31 11 C-29.17404199 13.25155725 -28.27087867 15.35657237 -27 18 C-26.443125 17.43152344 -25.88625 16.86304688 -25.3125 16.27734375 C-8.35606844 -0.87958615 -8.35606844 -0.87958615 0 0 Z " fill="#FDE07A" transform="translate(188,242)"/>
<path d="M0 0 C2.875 1.5625 2.875 1.5625 5 4 C5.75 7.25 5.75 7.25 5 11 C1.65928341 16.11169888 -3.05752765 20.08397157 -7.68359375 24.00390625 C-11.13194776 26.9754221 -14.45556647 30.08034213 -17.7878418 33.1809082 C-21.81528103 36.90361141 -21.81528103 36.90361141 -24.328125 38.21484375 C-27.70350051 41.81892461 -26.50867295 47.81627684 -26.48828125 52.50976562 C-26.58057973 58.16934058 -27.0610813 61.60810565 -31 66 C-36.20967126 70.37734801 -40.27478621 70.59039165 -46.78125 70.53125 C-47.71296021 70.5350769 -48.64467041 70.53890381 -49.60461426 70.54284668 C-51.56796351 70.54555996 -53.53134927 70.53823976 -55.49462891 70.52148438 C-58.49073281 70.50006625 -61.48443896 70.52130573 -64.48046875 70.546875 C-66.39323443 70.54423162 -68.30599863 70.53910643 -70.21875 70.53125 C-71.55492371 70.54339539 -71.55492371 70.54339539 -72.91809082 70.55578613 C-78.41859375 70.47332733 -81.72946872 69.790057 -86 66 C-90.48378306 60.94779741 -90.58977205 56.65704915 -90.53125 50.21875 C-90.5350769 49.28703979 -90.53890381 48.35532959 -90.54284668 47.39538574 C-90.54555996 45.43203649 -90.53823976 43.46865073 -90.52148438 41.50537109 C-90.50006625 38.50926719 -90.52130573 35.51556104 -90.546875 32.51953125 C-90.54423162 30.60676557 -90.53910643 28.69400137 -90.53125 26.78125 C-90.53934692 25.89046753 -90.54744385 24.99968506 -90.55578613 24.08190918 C-90.47332733 18.58140625 -89.790057 15.27053128 -86 11 C-80.94779741 6.51621694 -76.65704915 6.41022795 -70.21875 6.46875 C-69.28703979 6.4649231 -68.35532959 6.46109619 -67.39538574 6.45715332 C-65.43203649 6.45444004 -63.46865073 6.46176024 -61.50537109 6.47851562 C-58.50926719 6.49993375 -55.51556104 6.47869427 -52.51953125 6.453125 C-50.60676557 6.45576838 -48.69400137 6.46089357 -46.78125 6.46875 C-45.89046753 6.46065308 -44.99968506 6.45255615 -44.08190918 6.44421387 C-38.56284095 6.52695099 -35.3842557 7.33085787 -31 11 C-29.05932198 13.22049672 -27.62198657 15.51931465 -26 18 C-25.5875 17.57589844 -25.175 17.15179688 -24.75 16.71484375 C-20.92205843 12.82709059 -16.99355135 9.12141692 -12.84375 5.578125 C-11.32232538 4.27588868 -9.84251887 2.9251961 -8.375 1.5625 C-5.28314769 -0.47161336 -3.63632575 -0.60605429 0 0 Z " fill="#6FF4C2" transform="translate(187,347)"/>
<path d="M0 0 C3.93135533 0.96559605 5.4408351 1.42729453 7.5625 4.875 C8.125 8.3125 8.125 8.3125 7.5625 11.875 C5.5625 14.3125 5.5625 14.3125 2.5625 16.875 C1.2839367 18.15901559 0.01372565 19.45137857 -1.25 20.75 C-3.86509257 23.36509257 -6.52339714 25.88400842 -9.3125 28.3125 C-9.96089844 28.89515625 -10.60929687 29.4778125 -11.27734375 30.078125 C-13.4375 31.875 -13.4375 31.875 -16.12890625 33.609375 C-19.84859609 36.2549581 -22.93317636 38.45925328 -23.90966797 43.13671875 C-24.24585864 46.67044122 -24.33782082 50.14421533 -24.23999023 53.69213867 C-24.10649736 59.31126995 -24.50804835 62.4860023 -28.4375 66.875 C-33.14817773 70.72217821 -37.97556603 70.34253472 -43.77734375 70.34375 C-44.77705704 70.35136353 -45.77677032 70.35897705 -46.80677795 70.36682129 C-48.91730252 70.37760823 -51.02788041 70.38048112 -53.13842773 70.37597656 C-56.36077186 70.37500429 -59.58073386 70.41664207 -62.80273438 70.4609375 C-64.85676588 70.46614486 -66.91080564 70.46883269 -68.96484375 70.46875 C-69.92438461 70.48514526 -70.88392548 70.50154053 -71.87254333 70.51843262 C-76.25490319 70.47334044 -79.44415235 70.36382614 -82.96704102 67.58789062 C-86.238811 63.99505456 -87.67746283 61.45236927 -87.72802734 56.5847168 C-87.74078705 55.74672043 -87.75354675 54.90872406 -87.76669312 54.04533386 C-87.76891876 53.14736588 -87.77114441 52.24939789 -87.7734375 51.32421875 C-87.7800943 50.39205032 -87.7867511 49.4598819 -87.79360962 48.49946594 C-87.80372641 46.52839122 -87.80842694 44.5572823 -87.80810547 42.58618164 C-87.81246938 39.58356639 -87.84877352 36.58243251 -87.88671875 33.58007812 C-87.89258911 31.66146334 -87.89655703 29.7428416 -87.8984375 27.82421875 C-87.91280853 26.93232346 -87.92717957 26.04042816 -87.94198608 25.12150574 C-87.89897871 19.19834907 -87.00639721 15.66596026 -83.4375 10.875 C-79.04141618 6.90874197 -73.93160786 7.4238641 -68.31640625 7.44140625 C-67.33888901 7.4361644 -66.36137177 7.43092255 -65.35423279 7.42552185 C-63.29077096 7.41911004 -61.22727253 7.42042774 -59.16381836 7.42895508 C-56.01414608 7.43746179 -52.86628998 7.40869659 -49.71679688 7.37695312 C-47.70833387 7.37534083 -45.69986768 7.37591918 -43.69140625 7.37890625 C-42.28490562 7.36205528 -42.28490562 7.36205528 -40.84999084 7.34486389 C-35.06316824 7.40624952 -31.88859974 8.10506886 -27.4375 11.875 C-25.79441113 13.79047259 -24.73089061 15.68618513 -23.4375 17.875 C-22.33191431 16.91830408 -21.22817493 15.95947479 -20.125 15 C-19.03251953 14.05833984 -19.03251953 14.05833984 -17.91796875 13.09765625 C-16.14550517 11.50941723 -14.4235925 9.86402711 -12.73828125 8.18359375 C-4.61063661 0.21464789 -4.61063661 0.21464789 0 0 Z " fill="#FD6570" transform="translate(184.4375,136.125)"/>
<path d="M0 0 C2.9375 1.625 2.9375 1.625 5 5 C5.80750714 10.9358858 6.43573951 16.66574517 3.21484375 21.90234375 C1 24 1 24 -1 24.62890625 C-4.66504304 24.50721537 -6.44647075 24.42579173 -9.4375 22.125 C-11.76796158 18.95557226 -12.11797687 17.258381 -12.0625 13.375 C-12.05347656 12.55773437 -12.04445313 11.74046875 -12.03515625 10.8984375 C-12.02355469 10.27195312 -12.01195312 9.64546875 -12 9 C-36.13102319 17.36011336 -54.70996447 30.09874318 -66.34765625 53.43359375 C-68.41830914 57.90287528 -69.90430544 62.20816246 -71 67 C-71.27585937 68.155 -71.55171875 69.31 -71.8359375 70.5 C-72.57880996 73.66231945 -73.29901675 76.82817508 -74 80 C-73.21625 80.28875 -72.4325 80.5775 -71.625 80.875 C-69 82 -69 82 -67 84 C-66.66053491 87.66622297 -66.50994219 90.11322872 -68.3125 93.375 C-70 95 -70 95 -73 96 C-72.40554493 114.72533471 -62.98991585 131.9454577 -50 145 C-49.27425781 145.76054687 -48.54851562 146.52109375 -47.80078125 147.3046875 C-38.20567255 156.72060062 -25.22567026 163.51483086 -12 166 C-12.04640625 165.40832031 -12.0928125 164.81664062 -12.140625 164.20703125 C-12.3245198 160.18104871 -12.32969882 157.63302173 -10.4375 154 C-7.20083763 151.34427703 -5.17077279 150.92682855 -1 151 C1.80189446 152.76641172 3.51524911 154.03049822 5 157 C5.14851844 158.93359586 5.22130833 160.87342097 5.25 162.8125 C5.27578125 163.85019531 5.3015625 164.88789063 5.328125 165.95703125 C4.95408344 169.42582145 4.07568054 171.22110993 2 174 C-1 176 -1 176 -4.4375 176 C-8 175 -8 175 -9.76171875 172.03125 C-11.75064816 168.70619289 -11.75064816 168.70619289 -15.3984375 167.96875 C-16.72150209 167.79291023 -18.04742071 167.63766902 -19.375 167.5 C-39.59494253 164.51684326 -57.13935672 152.36511478 -69.39746094 136.26635742 C-77.32677874 125.32383656 -84.6486524 109.75143094 -84 96 C-84.78375 95.71125 -85.5675 95.4225 -86.375 95.125 C-89 94 -89 94 -91 92 C-91.68302257 84.9421001 -91.68302257 84.9421001 -89.1875 81.5 C-87 80 -87 80 -84 80 C-84.04382813 79.00355469 -84.08765625 78.00710938 -84.1328125 76.98046875 C-83.99346275 72.80407466 -83.16440569 69.2462474 -81.875 65.3125 C-81.6490918 64.61479492 -81.42318359 63.91708984 -81.19042969 63.19824219 C-73.67718254 40.76128113 -58.72547753 24.69666208 -38.125 13.6875 C-29.75169623 9.69013823 -20.3377717 6.6287736 -11 7 C-10.896875 6.401875 -10.79375 5.80375 -10.6875 5.1875 C-8.92352147 -0.42515895 -5.53640736 -0.76364239 0 0 Z " fill="#D2D2D5" transform="translate(388,296)"/>
<path d="M0 0 C8.91008965 -0.06955955 17.82008559 -0.12284139 26.73038769 -0.15543652 C30.86796356 -0.17108182 35.00535343 -0.19229917 39.14282227 -0.22631836 C43.13691851 -0.25895259 47.13083602 -0.27686156 51.12505531 -0.28463173 C52.64767584 -0.29016797 54.17028675 -0.300979 55.69283104 -0.31719017 C57.8282307 -0.33901914 59.9628951 -0.34196474 62.09838867 -0.34057617 C63.3130632 -0.34723801 64.52773773 -0.35389984 65.77922058 -0.36076355 C69.33499725 0.03752346 71.16816564 0.8490445 74 3 C76.1500644 6.2250966 76.2485312 7.05432054 76.24050903 10.76457214 C76.24325836 11.74473801 76.24600769 12.72490387 76.24884033 13.73477173 C76.2380545 15.34562149 76.2380545 15.34562149 76.22705078 16.98901367 C76.22734283 18.12086594 76.22763489 19.2527182 76.22793579 20.41886902 C76.22653989 24.16864629 76.21096622 27.91822609 76.1953125 31.66796875 C76.1915833 34.26442862 76.18873589 36.8608899 76.18673706 39.45735168 C76.17987501 45.59841805 76.16410414 51.73940263 76.14403808 57.88043815 C76.12168878 64.87190034 76.11068809 71.86336592 76.10064721 78.85485494 C76.07973815 93.23660818 76.04455611 107.61830156 76 122 C75.11957031 122.02578125 74.23914063 122.0515625 73.33203125 122.078125 C71.58986328 122.16320312 71.58986328 122.16320312 69.8125 122.25 C68.66394531 122.29640625 67.51539063 122.3428125 66.33203125 122.390625 C61.60380452 123.25534173 59.30698256 125.69301744 56 129 C56 86.76 56 44.52 56 1 C37.52 1 19.04 1 0 1 C0 0.67 0 0.34 0 0 Z " fill="#D0D0D5" transform="translate(293,75)"/>
<path d="M0 0 C25.82462526 -1.79130349 51.45752081 11.31279412 70.48364258 27.77197266 C90.25627834 45.41485583 104.87922798 71.3136188 107 98 C108.86643355 131.0877193 102.07707596 158.78585894 81 185 C80.13761719 186.09441406 80.13761719 186.09441406 79.2578125 187.2109375 C74.51691769 192.94991543 68.88410206 197.47628922 63 202 C62.21882813 202.6084375 61.43765625 203.216875 60.6328125 203.84375 C41.64468954 217.90902627 19.26521422 224.45371729 -4.1875 224.125 C-5.42564453 224.11597656 -6.66378906 224.10695313 -7.93945312 224.09765625 C-10.95984511 224.07433276 -13.97981399 224.04160477 -17 224 C-17 223.67 -17 223.34 -17 223 C-15.79085938 222.96261719 -14.58171875 222.92523438 -13.3359375 222.88671875 C13.42365584 221.89013186 36.00870284 213.87772884 57 197 C57.72960937 196.42507813 58.45921875 195.85015625 59.2109375 195.2578125 C79.73214475 178.30551086 92.45643422 150.83719707 95.68359375 124.81640625 C98.04541912 96.32871014 91.91922598 67.31025545 73.9375 44.4375 C72.63931767 42.94575172 71.32695175 41.46621599 70 40 C69.33871094 39.19820313 68.67742187 38.39640625 67.99609375 37.5703125 C50.61919323 17.0252478 26.11814439 5.70349414 0 1 C0 0.67 0 0.34 0 0 Z " fill="#FED064" transform="translate(390,272)"/>
<path d="M0 0 C5.72911572 -0.09913284 11.45772839 -0.1715934 17.1875 -0.21972656 C19.13517966 -0.23979906 21.08279937 -0.26706332 23.03027344 -0.30175781 C25.83543721 -0.35046852 28.63980187 -0.37301241 31.4453125 -0.390625 C32.31116974 -0.41127014 33.17702698 -0.43191528 34.06912231 -0.45318604 C39.52032072 -0.45519352 42.74570587 0.2543804 47 4 C48.73527662 6.84682932 49.2562393 8.99180792 49.29052734 12.30615234 C49.30328705 13.1473764 49.31604675 13.98860046 49.32919312 14.85531616 C49.33141876 15.7564212 49.33364441 16.65752625 49.3359375 17.5859375 C49.3459227 18.98774765 49.3459227 18.98774765 49.35610962 20.4178772 C49.36622548 22.39314814 49.37092697 24.36845318 49.37060547 26.34375 C49.37497441 29.35734729 49.41129345 32.36947464 49.44921875 35.3828125 C49.45508806 37.30468251 49.45905669 39.22655945 49.4609375 41.1484375 C49.47530853 42.04549408 49.48967957 42.94255066 49.50448608 43.86679077 C49.46331871 49.53704054 48.72297931 52.65435609 45 57 C42.20159251 58.39920375 39.88878115 58.13890948 36.75688171 58.15390015 C35.78568294 58.16047353 35.78568294 58.16047353 34.794864 58.1671797 C32.61543704 58.18058278 30.43605053 58.1867499 28.2565918 58.19287109 C26.69792497 58.20077083 25.13925998 58.20903971 23.58059692 58.21765137 C18.45348867 58.24388486 13.32637219 58.25917965 8.19921875 58.2734375 C6.43547879 58.27879651 4.67173889 58.28417401 2.90799904 58.28956985 C-4.42741977 58.31119993 -11.76283636 58.32993754 -19.098279 58.34119225 C-29.61773624 58.35743733 -40.13682444 58.39062699 -50.65614253 58.44759309 C-58.04898123 58.48626598 -65.44172111 58.50582174 -72.83465832 58.51111281 C-77.25204932 58.51476975 -81.66904684 58.52682699 -86.08632851 58.55921555 C-90.24214101 58.58925003 -94.39732102 58.59562484 -98.55321884 58.58383179 C-100.07823606 58.58361067 -101.60328223 58.59194778 -103.12819862 58.60948563 C-105.21153912 58.63214103 -107.29257885 58.62390349 -109.37593079 58.60800171 C-111.1239019 58.61296693 -111.1239019 58.61296693 -112.90718555 58.61803246 C-117.00606432 57.79895968 -118.51175847 56.30951111 -121 53 C-121.3125 50.1875 -121.3125 50.1875 -121 48 C-120.2100124 47.99853344 -119.4200248 47.99706688 -118.60609818 47.99555588 C-99.39393292 47.95852239 -80.18195 47.89955376 -60.96992874 47.81609726 C-51.67916825 47.77626877 -42.38849293 47.74389568 -33.09765625 47.72900391 C-25.00081637 47.71600709 -16.90416359 47.68909303 -8.80742908 47.64538693 C-4.51926151 47.62272759 -0.23132509 47.60709198 4.05690765 47.60811615 C8.09206883 47.60886014 12.12671819 47.59101535 16.16174698 47.55883217 C17.6435958 47.55030429 19.12550185 47.54860279 20.60736465 47.55419731 C22.62911515 47.56081415 24.65090061 47.54059666 26.67254639 47.51898193 C27.80450817 47.51529476 28.93646996 47.51160759 30.10273361 47.50780869 C33.64237926 46.88740912 34.79132532 45.77246408 37 43 C38.69026137 39.61947726 38.24444959 35.77739858 38.31640625 32.0546875 C38.3475779 30.72716965 38.3475779 30.72716965 38.37937927 29.37283325 C38.44486598 26.54030259 38.50375562 23.70767775 38.5625 20.875 C38.60568606 18.95702143 38.64930037 17.03905246 38.69335938 15.12109375 C38.80135401 10.4141577 38.90043378 5.70715217 39 1 C26.13 1 13.26 1 0 1 C0 0.67 0 0.34 0 0 Z " fill="#C48A59" transform="translate(244,44)"/>
<path d="M0 0 C1.05583786 -0.00700928 2.11167572 -0.01401855 3.19950867 -0.02124023 C6.68731028 -0.03883581 10.1742996 -0.02719126 13.66210938 -0.01367188 C16.08679358 -0.01636632 18.51147673 -0.02024834 20.93615723 -0.02526855 C26.01695039 -0.03116575 31.0974622 -0.02259311 36.17822266 -0.00390625 C42.69196213 0.01888294 49.20504235 0.00576111 55.71875763 -0.01819611 C60.72533132 -0.0326478 65.73174863 -0.02805087 70.73832703 -0.01768494 C73.14011208 -0.01501594 75.54191132 -0.01829346 77.94367981 -0.02760315 C81.30007557 -0.03775788 84.65540262 -0.02228122 88.01171875 0 C89.50181709 -0.01214539 89.50181709 -0.01214539 91.02201843 -0.02453613 C95.31219344 0.02824601 97.83693555 0.12355958 101.59143066 2.33508301 C104.29609945 5.41847096 104.64878248 7.44426953 104.50585938 11.51757812 C102.48826915 14.45795125 100.86599195 16.23475984 97.28608704 16.97914505 C94.45572812 17.17066584 91.66492389 17.19291919 88.828125 17.16455078 C87.75278 17.17331238 86.677435 17.18207397 85.56950378 17.19110107 C82.01662796 17.21309893 78.46499775 17.19853964 74.91210938 17.18164062 C72.44258383 17.18500861 69.9730599 17.18986108 67.50354004 17.19613647 C62.32853408 17.20350839 57.1539597 17.19279123 51.97900391 17.16943359 C45.34407448 17.14094659 38.71015629 17.15734871 32.07526398 17.18729591 C26.97601699 17.2053597 21.87700993 17.19961486 16.77775574 17.18665695 C14.33131287 17.18332045 11.88484825 17.18741854 9.43843079 17.19905472 C6.01956446 17.21174735 2.60233787 17.19240571 -0.81640625 17.16455078 C-1.82850662 17.17467194 -2.84060699 17.18479309 -3.88337708 17.19522095 C-8.55872802 17.12461574 -10.79516158 17.03033514 -14.65368652 14.19979858 C-16.49414062 11.51757812 -16.49414062 11.51757812 -16.61914062 7.95507812 C-13.88114124 -0.41103111 -7.61591584 -0.06207526 0 0 Z " fill="#A99DA9" transform="translate(221.494140625,188.482421875)"/>
<path d="M0 0 C1.59597771 -0.01336143 1.59597771 -0.01336143 3.22419739 -0.0269928 C6.74001455 -0.04829618 10.2540029 -0.02595403 13.76977539 -0.0012207 C16.21448453 -0.00272295 18.65919319 -0.00615256 21.10389709 -0.01142883 C26.22771152 -0.01576251 31.35089709 0.00109457 36.47460938 0.03320312 C43.03996979 0.07296237 49.6041494 0.06369375 56.16954708 0.03896809 C61.21824303 0.02477939 66.26666358 0.03487681 71.31534004 0.0524807 C73.7358287 0.05832839 76.15634556 0.05703131 78.5768261 0.04845619 C81.96200959 0.0404583 85.34546859 0.06472571 88.73046875 0.09765625 C89.72962311 0.08910614 90.72877747 0.08055603 91.75820923 0.07174683 C96.22199785 0.14663129 99.47375001 0.2964533 103.09083557 3.07926941 C105.42993164 5.76049805 105.42993164 5.76049805 105.55493164 9.32299805 C104.28766944 13.19518811 103.74617213 14.43420807 100.42993164 16.76049805 C96.90836007 17.36820232 93.41586554 17.30645981 89.84985352 17.27807617 C88.23464561 17.28859009 88.23464561 17.28859009 86.58680725 17.29931641 C83.02383717 17.31693597 79.46165994 17.30525892 75.89868164 17.29174805 C73.42533211 17.2944418 70.9519836 17.29832325 68.4786377 17.30334473 C63.29351729 17.30924517 58.10867239 17.30065882 52.92358398 17.28198242 C46.27176208 17.2591928 39.62085476 17.27231273 32.96901703 17.29627228 C27.86125816 17.31071519 22.75365274 17.30613108 17.64588928 17.29576111 C15.19303817 17.29308968 12.74017319 17.29637813 10.28733826 17.30567932 C6.8611858 17.31581962 3.43608383 17.30037761 0.01000977 17.27807617 C-1.00725693 17.2861731 -2.02452362 17.29427002 -3.07261658 17.3026123 C-9.9267505 17.21981193 -9.9267505 17.21981193 -13.16491699 14.90783691 C-15.06380041 12.00598145 -15.63987191 10.25067541 -15.57006836 6.76049805 C-11.5455207 -0.11225972 -7.57498928 -0.1037795 0 0 Z " fill="#A79BA7" transform="translate(220.570068359375,249.239501953125)"/>
<path d="M0 0 C1.0670517 -0.00379669 2.13410339 -0.00759338 3.23348999 -0.01150513 C6.76403099 -0.0189203 10.29375076 0.00248638 13.82421875 0.02490234 C16.2751455 0.02728628 18.7260741 0.0281922 21.17700195 0.02767944 C26.31505768 0.03080913 31.4528347 0.04738788 36.59082031 0.07421875 C43.18188483 0.10819855 49.77264294 0.1158474 56.36378479 0.11432838 C61.42520074 0.11487186 66.4865495 0.12583554 71.54794312 0.14033127 C73.97845959 0.14670237 76.40898368 0.15063889 78.83950806 0.15211868 C82.23428349 0.15644827 85.62873212 0.1739424 89.0234375 0.1953125 C90.03135345 0.19440613 91.03926941 0.19349976 92.07772827 0.19256592 C93.00300323 0.20109589 93.9282782 0.20962585 94.8815918 0.21841431 C96.08503487 0.22344184 96.08503487 0.22344184 97.31278992 0.22857094 C99.82207674 0.52215091 101.38485678 1.12929328 103.51171875 2.48583984 C105.51171875 5.48583984 105.51171875 5.48583984 105.32421875 8.98583984 C104.54012715 12.36346519 104.24346896 13.51897969 101.51171875 15.48583984 C99.16346756 16.65996544 97.7472916 16.62405898 95.12882996 16.64646912 C94.20774948 16.65651474 93.28666901 16.66656036 92.337677 16.6769104 C91.32414154 16.68274139 90.31060608 16.68857239 89.26635742 16.69458008 C88.20120407 16.70436386 87.13605072 16.71414764 86.03862 16.72422791 C82.50232198 16.75422238 78.96606183 16.77557718 75.4296875 16.79443359 C74.22418055 16.80100542 73.01867359 16.80757725 71.77663612 16.81434822 C65.39724526 16.84695771 59.01787124 16.87140615 52.63842773 16.89086914 C47.35074668 16.90869745 42.06359737 16.943541 36.77612305 16.9934082 C30.40009011 17.05347821 24.02455113 17.08432695 17.64824867 17.09404182 C15.21570404 17.10261931 12.78317341 17.12149325 10.35079002 17.15078545 C6.94835807 17.18955716 3.54786283 17.1907525 0.14526367 17.18286133 C-1.36593048 17.21286224 -1.36593048 17.21286224 -2.90765381 17.24346924 C-9.53440295 17.17436619 -9.53440295 17.17436619 -12.25140953 15.21318245 C-14.59135704 12.57515489 -15.47990851 10.90447663 -15.55078125 7.36083984 C-12.61982168 -0.56999193 -7.50090103 -0.08364063 0 0 Z " fill="#A79BA7" transform="translate(220.48828125,144.51416015625)"/>
<path d="M0 0 C21.12 0 42.24 0 64 0 C64 10.23 64 20.46 64 31 C45.52 31 27.04 31 8 31 C7.67 23.41 7.34 15.82 7 8 C4.34871379 2.86851775 4.34871379 2.86851775 0 0 Z " fill="#837582" transform="translate(285,44)"/>
<path d="M0 0 C1.02485504 -0.00073013 2.04971008 -0.00146027 3.10562134 -0.00221252 C6.48786631 0.00126658 9.86872849 0.0401451 13.25073242 0.0793457 C15.59770455 0.08867262 17.94468641 0.09578931 20.29167175 0.1007843 C26.4650669 0.11986331 32.63787267 0.16897304 38.81103516 0.2243042 C45.11181668 0.27547652 51.41269356 0.29829411 57.71362305 0.32348633 C70.07390786 0.37708997 82.43375548 0.46241461 94.79370117 0.56762695 C93.83788835 1.696215 92.88016371 2.8231841 91.92163086 3.94946289 C91.12193878 4.89109283 91.12193878 4.89109283 90.30609131 5.85174561 C88.67773126 7.69920055 86.96769612 9.28196126 85.04370117 10.81762695 C82.68729945 12.7069941 81.52696218 13.96773544 79.79370117 16.56762695 C76.95024789 16.87506099 74.32305876 16.98736323 71.47607422 16.97167969 C70.61574585 16.97854294 69.75541748 16.98540619 68.86901855 16.99247742 C66.01431949 17.01083408 63.16016556 17.0068944 60.30541992 17.0012207 C58.3248527 17.00577924 56.34428707 17.01108382 54.36372375 17.0171051 C50.20660999 17.02605436 46.04968812 17.02359365 41.89257812 17.01367188 C36.56587179 17.00219759 31.23982988 17.02236089 25.91321087 17.05158901 C21.82023407 17.0699427 17.72741658 17.06965989 13.63440895 17.06395149 C11.67081586 17.06379808 9.70721211 17.06985876 7.74365807 17.08224297 C4.99518718 17.09713016 2.24794433 17.08649166 -0.50048828 17.06933594 C-1.71713417 17.08383789 -1.71713417 17.08383789 -2.95835876 17.09863281 C-6.68806419 17.0499129 -8.96960973 16.71220586 -12.18009949 14.75111389 C-15.01755122 11.69339954 -15.35149437 9.70569976 -15.20629883 5.56762695 C-11.02734109 -0.43777269 -6.71745241 -0.12528436 0 0 Z " fill="#A89DA8" transform="translate(220.206298828125,294.432373046875)"/>
<path d="M0 0 C2.5 1.5625 2.5 1.5625 4 4 C4.5625 7.4375 4.5625 7.4375 4 11 C2 13.4375 2 13.4375 -1 16 C-2.2785633 17.28401559 -3.54877435 18.57637857 -4.8125 19.875 C-7.42759257 22.49009257 -10.08589714 25.00900842 -12.875 27.4375 C-13.52339844 28.02015625 -14.17179687 28.6028125 -14.83984375 29.203125 C-17 31 -17 31 -19.69140625 32.734375 C-23.47941313 35.42854774 -26.46183642 37.63482249 -27.53662109 42.35839844 C-28.23875135 48.22704616 -28.23308109 54.10066669 -28 60 C-28.33 60 -28.66 60 -29 60 C-29.33 54.39 -29.66 48.78 -30 43 C-33.86144327 46.57257963 -33.86144327 46.57257963 -37.71826172 50.15014648 C-41.59932843 53.7245402 -44.12129534 55.75445534 -49.60205078 55.68261719 C-55.22052651 54.08322214 -59.05274411 48.77284551 -62.9375 44.625 C-63.90247298 43.62843901 -64.86925572 42.63362705 -65.83789062 41.640625 C-73.78060117 33.41042102 -73.78060117 33.41042102 -74.4375 29.1875 C-74 26 -74 26 -71.375 23.0625 C-68 21 -68 21 -65.203125 20.95703125 C-60.71439854 22.41860438 -58.47048584 25.16789199 -55.375 28.625 C-54.26995656 29.85735259 -53.15321651 31.07934629 -52.0234375 32.2890625 C-51.53794434 32.83256348 -51.05245117 33.37606445 -50.55224609 33.93603516 C-49.02273845 35.23439488 -49.02273845 35.23439488 -46.91357422 34.75585938 C-44.58637319 33.83661794 -43.444509 32.70934712 -41.75 30.875 C-38.5866574 27.54768284 -35.24218964 24.59229364 -31.69921875 21.67578125 C-29.90357214 19.90490218 -28.98888231 18.30404558 -28 16 C-27.01 16 -26.02 16 -25 16 C-22.91522863 14.24375902 -22.91522863 14.24375902 -20.8125 11.9375 C-20.01585937 11.1228125 -19.21921875 10.308125 -18.3984375 9.46875 C-16.90211886 7.92856534 -15.40710048 6.3871151 -13.9140625 4.84375 C-9.24563989 0.34139776 -6.52162164 -1.19563063 0 0 Z " fill="#A99BA6" transform="translate(188,137)"/>
<path d="M0 0 C2.875 1.5625 2.875 1.5625 5 4 C5.75 7.25 5.75 7.25 5 11 C1.65268333 16.12179779 -3.07625537 20.09521491 -7.70703125 24.02734375 C-10.48500549 26.41725345 -13.18102528 28.89156531 -15.875 31.375 C-20.40413707 35.54191974 -24.95636644 39.68094985 -29.5390625 43.7890625 C-31.28912475 45.36134065 -33.03331222 46.94016858 -34.7734375 48.5234375 C-35.67320312 49.34070313 -36.57296875 50.15796875 -37.5 51 C-38.3146875 51.7425 -39.129375 52.485 -39.96875 53.25 C-42.45948359 55.39586278 -43.54156156 55.95131068 -46.83203125 56.30078125 C-50.75156811 55.92864273 -51.88877714 54.90069313 -54.6875 52.1875 C-55.53699219 51.3728125 -56.38648438 50.558125 -57.26171875 49.71875 C-58.61716797 48.37296875 -58.61716797 48.37296875 -60 47 C-61.00555189 46.03025509 -62.01208052 45.06152208 -63.01953125 44.09375 C-71.69983013 35.65250034 -71.69983013 35.65250034 -73 32 C-72.82212833 28.62043823 -72.58815561 26.01293466 -70.875 23.0625 C-67.64048218 21.22960657 -65.66028566 21.39995317 -62 22 C-58.99502113 24.00135135 -56.53201346 26.43831451 -54 29 C-53.319375 29.66773438 -52.63875 30.33546875 -51.9375 31.0234375 C-50.27439538 32.66642392 -48.62994467 34.32421314 -47 36 C-41.52717821 32.19735816 -36.85556187 27.97414667 -32.203125 23.2109375 C-29.6794911 20.67835454 -27.03013941 18.35574063 -24.31640625 16.03125 C-20.62936249 12.7980919 -17.05727704 9.43994826 -13.47949219 6.08666992 C-6.15121543 -0.73814585 -6.15121543 -0.73814585 0 0 Z " fill="#A69CA7" transform="translate(187,347)"/>
<path d="M0 0 C2.4375 1.5625 2.4375 1.5625 4 4 C4.727851 8.367106 4.46837297 10.29744055 2 14 C-0.69221628 16.85719889 -3.65244087 19.41112188 -6.63671875 21.95703125 C-9.43386066 24.37505641 -12.15651891 26.8695471 -14.875 29.375 C-19.38234101 33.52226208 -23.91572622 37.63804584 -28.4765625 41.7265625 C-30.3122743 43.38040812 -32.14006508 45.04092053 -33.9609375 46.7109375 C-34.70525024 47.39240845 -34.70525024 47.39240845 -35.46459961 48.08764648 C-36.86185157 49.36817128 -38.25715411 50.65082227 -39.65234375 51.93359375 C-44.29282001 56.01813941 -44.29282001 56.01813941 -48.35986328 55.91381836 C-52.61228923 54.84629118 -54.21163761 53.5002034 -57.2421875 50.37890625 C-58.16257813 49.44369141 -59.08296875 48.50847656 -60.03125 47.54492188 C-60.97928434 46.55089347 -61.92719971 45.55675157 -62.875 44.5625 C-63.84500807 43.57094699 -64.81635123 42.58069819 -65.7890625 41.59179688 C-73.85731263 33.31272383 -73.85731263 33.31272383 -74.3125 29.125 C-74 26 -74 26 -72.5 23.625 C-69.6459769 21.76988498 -67.50072751 21.46301779 -64.1171875 21.53222656 C-60.07785834 22.42467982 -57.84901341 25.52823013 -55.25 28.5625 C-54.16298387 29.8035313 -53.06447571 31.0346186 -51.953125 32.25390625 C-51.48036133 32.80377197 -51.00759766 33.3536377 -50.52050781 33.92016602 C-49.04330671 35.21046669 -49.04330671 35.21046669 -47.04101562 34.86743164 C-44.65990265 33.85545863 -43.2497936 32.66478428 -41.390625 30.8671875 C-40.71773437 30.22523438 -40.04484375 29.58328125 -39.3515625 28.921875 C-38.65804687 28.24640625 -37.96453125 27.5709375 -37.25 26.875 C-35.88150877 25.55854266 -34.51171823 24.24343463 -33.140625 22.9296875 C-32.45758301 22.27468262 -31.77454102 21.61967773 -31.07080078 20.94482422 C-28.40543156 18.44160196 -25.65663615 16.04497636 -22.89257812 13.65185547 C-19.54320974 10.72850324 -16.30108438 7.68879089 -13.05078125 4.65625 C-8.51357581 0.45904187 -6.29708017 -0.54285174 0 0 Z " fill="#A89CA7" transform="translate(188,242)"/>
<path d="M0 0 C0.33 0 0.66 0 1 0 C1 43.23 1 86.46 1 131 C5.29 131 9.58 131 14 131 C17.93215189 133.424827 19.54641781 134.63925343 21 139 C21.0853013 141.87694671 21.11585645 144.72900182 21.09765625 147.60546875 C21.0962413 148.44467361 21.09482635 149.28387848 21.09336853 150.14851379 C21.08777215 152.82821216 21.07522035 155.5078269 21.0625 158.1875 C21.05748453 160.00455608 21.05292171 161.82161348 21.04882812 163.63867188 C21.03780391 168.09248013 21.02054178 172.54622589 21 177 C17.37 177 13.74 177 10 177 C9.9906543 176.14768799 9.98130859 175.29537598 9.97167969 174.41723633 C9.92753079 171.23916483 9.86585733 168.06204216 9.79248047 164.88452148 C9.76434625 163.51225093 9.74309414 162.13982059 9.72900391 160.76733398 C9.70747269 158.78861506 9.6587072 156.8102523 9.609375 154.83203125 C9.58842773 153.64327393 9.56748047 152.4545166 9.54589844 151.22973633 C8.84291888 147.07065023 8.38367318 145.60319498 5 143 C0.79329391 142.23640188 -3.37468072 142.27903813 -7.640625 142.29296875 C-8.87794373 142.27784744 -10.11526245 142.26272614 -11.39007568 142.24714661 C-14.67164611 142.21145372 -17.95239769 142.1971081 -21.23413086 142.19311523 C-24.58598235 142.1837786 -27.93737659 142.14594282 -31.2890625 142.11132812 C-37.85938212 142.04835257 -44.42940258 142.01351719 -51 142 C-50.50359146 138.10427209 -50.2233438 136.28538375 -47.75 133.125 C-44 131 -44 131 -31 131 C-31 93.71 -31 56.42 -31 18 C-30.67 18 -30.34 18 -30 18 C-30 55.29 -30 92.58 -30 131 C-20.1 131 -10.2 131 0 131 C0 87.77 0 44.54 0 0 Z " fill="#867B86" transform="translate(400,66)"/>
<path d="M0 0 C2.90234206 2.06219041 3.82333063 3.29332253 4.6875 6.75 C3.18599221 13.84803685 -3.98320042 19.028603 -9.046875 23.96875 C-9.58829636 24.49776917 -10.12971771 25.02678833 -10.68754578 25.57183838 C-12.94390819 27.77335485 -15.20081559 29.97379532 -17.47705078 32.15478516 C-19.1579257 33.76863573 -20.82204884 35.39832723 -22.484375 37.03125 C-22.99377625 37.51170776 -23.50317749 37.99216553 -24.02801514 38.48718262 C-27.93250526 42.36220427 -29.28971864 45.89972039 -31 51 C-33.36352882 53.81805359 -35.86164604 54.3456673 -39.375 55 C-42.93374579 55.31124344 -44.72487052 54.95988864 -47.5 52.6875 C-51.11374566 48.80272342 -51.41439596 46.41457573 -51.33984375 41.25390625 C-51 39 -51 39 -48.9375 36.125 C-46 34 -46 34 -42.77856445 32.80712891 C-38.11990288 30.85889897 -35.06499935 27.54989597 -31.60546875 23.9609375 C-30.93203934 23.27947662 -30.25860992 22.59801575 -29.56477356 21.89590454 C-27.42929778 19.73157832 -25.30798512 17.55400617 -23.1875 15.375 C-21.04657137 13.19156499 -18.90281613 11.01097669 -16.75666809 8.83267212 C-15.42530912 7.47960659 -14.09746331 6.12307356 -12.77348328 4.76278687 C-11.87663567 3.84645981 -11.87663567 3.84645981 -10.96166992 2.91162109 C-10.43651291 2.37217865 -9.9113559 1.83273621 -9.37028503 1.27694702 C-6.24694574 -1.63364363 -3.97237127 -1.03281653 0 0 Z " fill="#A79BA7" transform="translate(425,340)"/>
<path d="M0 0 C1.9214257 0.00056648 1.9214257 0.00056648 3.88166809 0.00114441 C5.26967349 0.02667386 6.65766885 0.05275378 8.0456543 0.0793457 C9.47339131 0.08867814 10.90114441 0.09579222 12.3289032 0.1007843 C16.07594472 0.11982094 19.82200798 0.16889062 23.56866455 0.2243042 C27.39614632 0.2755701 31.22378709 0.29831386 35.05151367 0.32348633 C42.55391145 0.37701463 50.05550487 0.46228444 57.55737305 0.56762695 C58.06142113 2.67082758 58.56047813 4.77522487 59.05737305 6.88012695 C59.33581055 8.05188477 59.61424805 9.22364258 59.90112305 10.4309082 C60.55737305 13.56762695 60.55737305 13.56762695 60.55737305 16.56762695 C52.03845152 16.66038683 43.51974167 16.73142177 35.00043964 16.77487564 C31.04438222 16.79573347 27.0886708 16.82401731 23.1328125 16.86938477 C19.31376441 16.91290817 15.49504871 16.93677764 11.67577171 16.94713593 C10.22011267 16.95451576 8.76447143 16.96892716 7.30895424 16.99054718 C5.26677038 17.01966972 3.2259525 17.02357959 1.18359375 17.02172852 C0.0222139 17.03061096 -1.13916595 17.03949341 -2.33573914 17.04864502 C-6.1318952 16.46091229 -7.7658684 15.28198708 -10.44262695 12.56762695 C-11.56762695 9.13012695 -11.56762695 9.13012695 -11.44262695 5.56762695 C-7.91940401 1.07030359 -5.66110189 -0.05582941 0 0 Z " fill="#A89CA8" transform="translate(216.442626953125,399.432373046875)"/>
<path d="M0 0 C3.3 0 6.6 0 10 0 C10.23074219 1.00417969 10.46148437 2.00835937 10.69921875 3.04296875 C16.05351617 25.77426799 25.50250415 45.61402023 45.4375 58.875 C53.78045557 63.80602432 62.44721627 68.12690515 72 70 C71.95359375 69.40832031 71.9071875 68.81664062 71.859375 68.20703125 C71.6754802 64.18104871 71.67030118 61.63302173 73.5625 58 C76.79916237 55.34427703 78.82922721 54.92682855 83 55 C85.80189446 56.76641172 87.51524911 58.03049822 89 61 C89.14851844 62.93359586 89.22130833 64.87342097 89.25 66.8125 C89.27578125 67.85019531 89.3015625 68.88789063 89.328125 69.95703125 C88.95408344 73.42582145 88.07568054 75.22110993 86 78 C83 80 83 80 79.5625 80 C76 79 76 79 74.23828125 76.03125 C72.24935184 72.70619289 72.24935184 72.70619289 68.6015625 71.96875 C67.27849791 71.79291023 65.95257929 71.63766902 64.625 71.5 C44.40505747 68.51684326 26.86064328 56.36511478 14.60253906 40.26635742 C6.39178517 28.93545255 0 14.10686688 0 0 Z " fill="#D2D2D5" transform="translate(304,392)"/>
<path d="M0 0 C1.30097122 0.00030212 2.60194244 0.00060425 3.94233704 0.00091553 C5.35243346 0.02133915 6.76252356 0.04220309 8.17260742 0.06347656 C9.62276935 0.07094236 11.07294141 0.07663369 12.52311707 0.08062744 C16.32917419 0.09585744 20.13461507 0.1351154 23.94042969 0.17944336 C27.82828435 0.22045363 31.71623916 0.23865067 35.60424805 0.25878906 C43.22500345 0.30161337 50.84512475 0.37194036 58.46557617 0.45410156 C57.47557617 5.73410156 56.48557617 11.01410156 55.46557617 16.45410156 C47.33773718 16.56716699 39.21051183 16.65885295 31.08209705 16.71316242 C27.30752607 16.73923139 23.53352204 16.77457785 19.75927734 16.83129883 C16.11527136 16.88571837 12.47180986 16.91554242 8.82742882 16.92848778 C7.4387219 16.93771013 6.05004403 16.95572009 4.6615696 16.98275185 C2.71347873 17.01916227 0.76483726 17.02114495 -1.18359375 17.02172852 C-2.29167892 17.03283157 -3.3997641 17.04393463 -4.54142761 17.05537415 C-8.53843884 16.25240178 -10.04814221 14.61916417 -12.53442383 11.45410156 C-12.65942383 7.89160156 -12.65942383 7.89160156 -11.53442383 4.45410156 C-7.7846229 0.66171663 -5.26609827 -0.04090173 0 0 Z " fill="#A89DA8" transform="translate(217.534423828125,354.5458984375)"/>
<path d="M0 0 C6.6 0 13.2 0 20 0 C20 9.9 20 19.8 20 30 C15.8853125 30.99 15.8853125 30.99 11.6875 32 C10.82729248 32.20882812 9.96708496 32.41765625 9.08081055 32.6328125 C8.05661011 32.87644531 8.05661011 32.87644531 7.01171875 33.125 C5.96697388 33.37636719 5.96697388 33.37636719 4.90112305 33.6328125 C3 34 3 34 0 34 C0 22.78 0 11.56 0 0 Z " fill="#D1D1D6" transform="translate(349,243)"/>
<path d="M0 0 C3.5426931 0.02820616 4.63090304 0.2380644 7.75 2.1875 C11.22527821 5.87998309 11.16023124 8.90863475 11.08203125 13.828125 C10.75 16.3125 10.75 16.3125 8.8125 19.375 C4.82601072 21.89706465 1.47161133 22.90166416 -3.25 22.3125 C-6.37656275 20.65496674 -8.64678118 18.51893764 -10.25 15.3125 C-10.67068924 12.25348826 -10.74028455 9.36491674 -10.25 6.3125 C-7.8125 3.3125 -7.8125 3.3125 -5.25 1.3125 C-3.69014791 -0.24735209 -2.16093902 0.06797656 0 0 Z " fill="#847784" transform="translate(384.25,372.6875)"/>
<path d="M0 0 C1.93359375 -0.01933594 1.93359375 -0.01933594 3.90625 -0.0390625 C8.3091451 0.77451594 9.82130074 2.09281882 12.5 5.625 C12.56782033 9.49075874 12.19755573 11.67564367 9.8984375 14.8046875 C6.57092109 17.33013155 4.20151431 17.1916021 0.0625 17.1875 C-1.23558594 17.20941406 -2.53367187 17.23132813 -3.87109375 17.25390625 C-8.31158495 16.48434857 -9.76422275 15.13651749 -12.5 11.625 C-13.125 8.625 -13.125 8.625 -12.5 5.625 C-8.69984522 0.76366992 -6.09470651 -0.06094707 0 0 Z " fill="#A99DA7" transform="translate(460.5,375.375)"/>
<path d="M0 0 C3.4375 1.0625 3.4375 1.0625 5.875 2.875 C8.26770802 7.75612435 8.22544949 12.72431967 7.4375 18.0625 C5.74251449 21.54142069 4.6982533 22.88866446 1.4375 25.0625 C-4.71559933 24.84274645 -4.71559933 24.84274645 -7.25 22.5078125 C-9.08856212 19.08239618 -9.07624541 15.85623204 -9.0625 12.0625 C-9.09085937 11.3509375 -9.11921875 10.639375 -9.1484375 9.90625 C-9.16268389 6.08821639 -8.87877754 4.40446505 -6.25390625 1.56640625 C-3.5625 0.0625 -3.5625 0.0625 0 0 Z " fill="#A89DA8" transform="translate(385.5625,446.9375)"/>
<path d="M0 0 C2.9375 1.625 2.9375 1.625 5 5 C5.80750714 10.9358858 6.43573951 16.66574517 3.21484375 21.90234375 C1 24 1 24 -1 24.62890625 C-1.66 24.60699219 -2.32 24.58507812 -3 24.5625 C-3.66 24.56378906 -4.32 24.56507813 -5 24.56640625 C-8.02703765 23.70913973 -9.15700013 22.55029148 -11 20 C-11.40100915 17.16934716 -11.56122899 14.81653341 -11.5 12 C-11.51546875 11.2884375 -11.5309375 10.576875 -11.546875 9.84375 C-11.52098247 6.37415137 -11.26218823 4.35578661 -9.18359375 1.53515625 C-5.94085269 -0.74462414 -3.86743858 -0.6106482 0 0 Z " fill="#A99DA7" transform="translate(388,296)"/>
<path d="M0 0 C1.29808594 -0.0103125 2.59617187 -0.020625 3.93359375 -0.03125 C8.04825027 0.57111091 9.73310651 1.49343387 12.5625 4.5 C13.10301695 8.28361865 13.11012568 10.5090583 11.25 13.875 C8.03785339 16.96817822 4.43517743 16.72015919 0.1875 16.8125 C-0.93398438 16.84988281 -2.05546875 16.88726562 -3.2109375 16.92578125 C-7.12894254 16.40875637 -8.73250983 15.34447401 -11.4375 12.5 C-12.06640625 10.5 -12.06640625 10.5 -12 8.5 C-12.00128906 7.84 -12.00257813 7.18 -12.00390625 6.5 C-10.24539882 0.29064963 -5.75750575 -0.0456492 0 0 Z " fill="#A89CA7" transform="translate(308.4375,375.5)"/>
<path d="M0 0 C3.63 0 7.26 0 11 0 C11 9.57 11 19.14 11 29 C7.37 29 3.74 29 0 29 C0 19.43 0 9.86 0 0 Z " fill="#847683" transform="translate(390,243)"/>
<path d="M0 0 C2.5625 1.5 2.5625 1.5 4 4 C4.79363868 8.4694389 4.5287416 11.89653927 2.5625 16 C-1.07414527 18.83835728 -4.42611171 19.44026732 -9 19 C-11.92143417 17.23496686 -13.47923817 16.04152365 -15 13 C-15.5811138 5.91041162 -15.5811138 5.91041162 -13.125 2.0625 C-9.00982507 -1.93164037 -5.33769423 -1.18510085 0 0 Z " fill="#EBEDED" transform="translate(213,38)"/>
<path d="M0 0 C5.33748381 0.73009407 10.63500441 1.61286711 15.9375 2.5625 C16.71673828 2.70107422 17.49597656 2.83964844 18.29882812 2.98242188 C20.1994064 3.32056157 22.09973008 3.6601317 24 4 C24 4.33 24 4.66 24 5 C16.08 5 8.16 5 0 5 C0 3.35 0 1.7 0 0 Z " fill="#6E6469" transform="translate(349,491)"/>
<path d="M0 0 C-0.33 0.66 -0.66 1.32 -1 2 C-9.58 2 -18.16 2 -27 2 C-27 1.67 -27 1.34 -27 1 C-25.02966797 0.90912109 -25.02966797 0.90912109 -23.01953125 0.81640625 C-21.28384459 0.73196744 -19.54816802 0.64732112 -17.8125 0.5625 C-16.94818359 0.52318359 -16.08386719 0.48386719 -15.19335938 0.44335938 C-11.74467358 0.27158575 -8.46247484 0.09447083 -5.07421875 -0.59765625 C-3 -1 -3 -1 0 0 Z " fill="#F3CE6B" transform="translate(400,494)"/>
</svg>
